<svg width="95" height="36" viewBox="0 0 95 36" fill="none" xmlns="http://www.w3.org/2000/svg">
<g clip-path="url(#clip0_430_20)">
<path d="M94.4674 31.6307C91.4004 25.591 89.4348 19.3076 87.1028 12.9862C86.4966 11.3363 84.2222 12.3044 84.3517 13.8361C84.5638 16.4316 85.0584 19.0168 85.7563 21.5611C80.8289 16.8547 74.7455 12.8802 69.1486 9.78189C61.6429 5.62949 53.3667 2.63032 44.9201 1.10125C30.9157 -1.43294 11.2875 0.651177 1.15963 11.9057C0.580324 12.5533 1.50082 13.4325 2.18489 13.1287C9.13041 10.1 15.2726 6.79509 22.9098 5.64677C30.3861 4.5254 38.306 4.8342 45.6742 6.54436C53.462 8.35598 60.608 11.8604 67.2727 16.2324C72.8438 19.8919 77.5176 24.4117 82.4901 28.6701C77.8135 28.5231 73.0821 29.199 69.1492 31.0075C66.837 32.0722 67.9601 35.5872 70.4512 35.2251C74.2322 34.6769 77.7843 33.6626 81.6548 33.633C85.2436 33.6022 88.685 34.1806 92.1934 34.8647C93.8777 35.2006 95.1979 33.0684 94.4674 31.6307Z" fill="#A5241F" fill-opacity="0.5"/>
</g>
<defs>
<clipPath id="clip0_430_20">
<rect width="95" height="36" fill="white"/>
</clipPath>
</defs>
</svg>
