<svg xmlns="http://www.w3.org/2000/svg" width="26" height="26" fill="none"><path fill="#C292FF" d="M25.172 10.995 15.004.828a2.844 2.844 0 0 0-4.01 0L.828 10.995a2.845 2.845 0 0 0 0 4.01l10.168 10.167a2.842 2.842 0 0 0 4.01 0l10.167-10.166a2.843 2.843 0 0 0 0-4.01Z"/><path fill="#210E36" fill-rule="evenodd" d="M15.005.827a2.844 2.844 0 0 0-4.01 0L.827 10.995a2.845 2.845 0 0 0 0 4.01l10.168 10.167a2.842 2.842 0 0 0 4.01 0l10.167-10.166a2.843 2.843 0 0 0 0-4.01L15.004.825ZM24.462 14.3h.002a1.843 1.843 0 0 0 0-2.598l-.002-.001L14.3 1.536h-.001a1.844 1.844 0 0 0-2.598 0h-.002L1.537 11.7v.001a1.845 1.845 0 0 0-.001 2.599h.001L11.7 24.464v.001a1.842 1.842 0 0 0 2.598 0h.001L24.464 14.3Z" clip-rule="evenodd"/><ellipse cx="9.401" cy="13.07" fill="#210E36" rx="1.253" ry="1.275"/><path stroke="#210E36" stroke-linecap="round" stroke-width=".94" d="M9.401 10.519c-.98 0-1.845.51-2.35 1.283M17.078 10.519c.981 0 1.845.51 2.35 1.283"/><path fill="#210E36" d="M13.319 19.763c2.163 0 3.917-1.855 3.917-4.144H9.4c0 2.289 1.754 4.144 3.918 4.144Z"/><path fill="#E62D51" d="M13.318 16.576c-.952 0-1.723.576-1.723 1.562.861.892 2.585.892 3.447 0 0-.986-.772-1.562-1.724-1.562Z"/><ellipse cx="16.922" cy="13.07" fill="#210E36" rx="1.253" ry="1.275"/></svg>