<!--?xml version="1.0" standalone="no"?-->
              <svg id="sw-js-blob-svg" viewBox="0 0 100 100" xmlns="http://www.w3.org/2000/svg" version="1.1">
                    <defs> 
                        <linearGradient id="sw-gradient" x1="0" x2="1" y1="1" y2="0">
                            <stop id="stop1" stop-color="rgba(255, 235, 234, 1)" offset="0%"></stop>
                            <stop id="stop2" stop-color="rgba(255, 235, 234, 1)" offset="100%"></stop>
                        </linearGradient>
                    </defs>
                <path fill="url(#sw-gradient)" d="M22.4,-26.8C27.7,-22.3,29.8,-13.9,30.3,-6.1C30.7,1.7,29.6,9.1,26,14.6C22.3,20.1,16.2,23.8,9.2,27.3C2.1,30.8,-5.7,34.1,-12.6,32.5C-19.5,30.9,-25.4,24.5,-30.9,16.9C-36.5,9.3,-41.6,0.5,-40.1,-6.9C-38.6,-14.4,-30.4,-20.5,-22.7,-24.5C-14.9,-28.6,-7.4,-30.6,0.6,-31.3C8.6,-31.9,17.1,-31.2,22.4,-26.8Z" width="100%" height="100%" transform="translate(50 50)" stroke-width="0" style="transition: all 0.3s ease 0s;"></path>
              </svg>