<svg width="40" height="40" viewBox="0 0 40 40" fill="none" xmlns="http://www.w3.org/2000/svg">
<g clip-path="url(#clip0_446_254)">
<path d="M20 40C31.0457 40 40 31.0457 40 20C40 8.9543 31.0457 0 20 0C8.9543 0 0 8.9543 0 20C0 31.0457 8.9543 40 20 40Z" fill="#FED330"/>
<path d="M20.7857 16.857C21.4109 16.857 22.0104 17.1053 22.4525 17.5473C22.8945 17.9894 23.1429 18.5889 23.1429 19.2141C23.1429 19.4225 23.2256 19.6223 23.373 19.7697C23.5203 19.917 23.7202 19.9998 23.9286 19.9998C24.137 19.9998 24.3368 19.917 24.4842 19.7697C24.6315 19.6223 24.7143 19.4225 24.7143 19.2141C24.7143 18.1722 24.3004 17.1729 23.5636 16.4362C22.8269 15.6994 21.8276 15.2855 20.7857 15.2855C20.5773 15.2855 20.3775 15.3683 20.2301 15.5157C20.0828 15.663 20 15.8629 20 16.0712C20 16.2796 20.0828 16.4795 20.2301 16.6268C20.3775 16.7742 20.5773 16.857 20.7857 16.857Z" fill="black"/>
<path d="M20.7855 13.7144C22.2442 13.7144 23.6431 14.2938 24.6746 15.3253C25.706 16.3567 26.2855 17.7557 26.2855 19.2144C26.2855 19.4228 26.3683 19.6226 26.5156 19.77C26.663 19.9173 26.8628 20.0001 27.0712 20.0001C27.2796 20.0001 27.4794 19.9173 27.6268 19.77C27.7741 19.6226 27.8569 19.4228 27.8569 19.2144C27.8569 17.3389 27.1119 15.5403 25.7857 14.2141C24.4596 12.888 22.6609 12.1429 20.7855 12.1429C20.5771 12.1429 20.3772 12.2257 20.2299 12.3731C20.0825 12.5204 19.9998 12.7203 19.9998 12.9287C19.9998 13.137 20.0825 13.3369 20.2299 13.4842C20.3772 13.6316 20.5771 13.7144 20.7855 13.7144ZM27.6605 23.0722C27.6173 22.9461 27.5427 22.833 27.4437 22.7437C27.3447 22.6543 27.2246 22.5916 27.0948 22.5615L22.3805 21.4851C22.2525 21.4561 22.1193 21.4596 21.9931 21.4952C21.8668 21.5309 21.7515 21.5977 21.6576 21.6894C21.5476 21.7915 21.5398 21.7994 21.029 22.7737C19.3344 21.9928 17.9765 20.6293 17.2026 18.9315C18.2005 18.4287 18.2083 18.4287 18.3105 18.3108C18.4022 18.217 18.4689 18.1016 18.5046 17.9754C18.5403 17.8491 18.5438 17.7159 18.5148 17.5879L17.4383 12.9287C17.4082 12.7988 17.3455 12.6787 17.2562 12.5797C17.1668 12.4808 17.0538 12.4062 16.9276 12.3629C16.7441 12.2974 16.5547 12.25 16.3619 12.2215C16.1633 12.1755 15.9607 12.1492 15.7569 12.1429C14.7983 12.1429 13.879 12.5237 13.2012 13.2015C12.5234 13.8794 12.1426 14.7987 12.1426 15.7572C12.1468 18.9651 13.4229 22.0403 15.6912 24.3086C17.9595 26.5769 21.0348 27.8531 24.2426 27.8572C24.7173 27.8572 25.1872 27.7637 25.6257 27.5821C26.0642 27.4005 26.4627 27.1342 26.7983 26.7986C27.1339 26.463 27.4001 26.0646 27.5818 25.6261C27.7634 25.1876 27.8569 24.7176 27.8569 24.2429C27.8571 24.043 27.8414 23.8433 27.8098 23.6458C27.7767 23.4506 27.7268 23.2587 27.6605 23.0722ZM24.2426 26.2858C21.4509 26.2837 18.7741 25.1738 16.8001 23.1998C14.8261 21.2257 13.7161 18.5489 13.7141 15.7572C13.7161 15.2161 13.932 14.6977 14.3147 14.315C14.6973 13.9323 15.2157 13.7164 15.7569 13.7144H16.0162L16.8569 17.3601L16.4326 17.5801C15.7569 17.9337 15.2226 18.2165 15.5055 18.8294C15.9661 20.1333 16.7114 21.3183 17.6872 22.2982C18.663 23.2781 19.8449 24.0283 21.1469 24.4944C21.8069 24.7615 22.0662 24.2665 22.4198 23.5829L22.6476 23.1508L26.2855 23.9837V24.2429C26.2834 24.7841 26.0675 25.3025 25.6848 25.6852C25.3022 26.0678 24.7838 26.2837 24.2426 26.2858Z" fill="black"/>
</g>
<defs>
<clipPath id="clip0_446_254">
<rect width="40" height="40" fill="white"/>
</clipPath>
</defs>
</svg>
