<svg width="513" height="513" viewBox="0 0 513 513" fill="none" xmlns="http://www.w3.org/2000/svg">
<path d="M440.5 376.5C425.98 376.5 412.612 381.42 401.86 389.604C377.972 357.508 342.812 335.852 303.244 329.396L301.228 319.308C334.868 313.268 360.5 283.852 360.5 248.5V240.5H441.636C445.212 254.268 457.636 264.5 472.5 264.5C490.148 264.5 504.5 250.148 504.5 232.5C504.5 214.852 490.148 200.5 472.5 200.5C457.636 200.5 445.212 210.732 441.636 224.5H384.292C389.372 217.796 392.5 209.54 392.5 200.5C392.5 192.788 390.204 185.644 386.404 179.532C390.38 167.668 392.5 155.348 392.5 142.812V124.292C392.5 60.444 340.556 8.5 276.708 8.5H254.164C218.9 8.5 187.108 27.62 170.564 58.564C139.612 75.108 120.5 106.9 120.5 142.164V154.028C120.5 163.74 122.06 173.292 124.972 182.508C122.204 187.948 120.5 194.004 120.5 200.5C120.5 209.54 123.628 217.796 128.708 224.5H71.364C67.788 210.732 55.364 200.5 40.5 200.5C22.852 200.5 8.5 214.852 8.5 232.5C8.5 250.148 22.852 264.5 40.5 264.5C55.364 264.5 67.788 254.268 71.364 240.5H152.5V248.5C152.5 283.852 178.132 313.276 211.78 319.308L209.756 329.396C170.212 335.844 135.036 357.508 111.14 389.612C100.388 381.42 87.028 376.5 72.5 376.5C37.212 376.5 8.5 405.212 8.5 440.5C8.5 475.788 37.212 504.5 72.5 504.5H440.5C475.788 504.5 504.5 475.788 504.5 440.5C504.5 405.212 475.788 376.5 440.5 376.5ZM472.5 216.5C481.324 216.5 488.5 223.676 488.5 232.5C488.5 241.324 481.324 248.5 472.5 248.5C463.676 248.5 456.5 241.324 456.5 232.5C456.5 223.676 463.676 216.5 472.5 216.5ZM40.5 248.5C31.676 248.5 24.5 241.324 24.5 232.5C24.5 223.676 31.676 216.5 40.5 216.5C49.324 216.5 56.5 223.676 56.5 232.5C56.5 241.324 49.324 248.5 40.5 248.5ZM303.028 345.796L297.804 408.508L267.764 383.476L299.676 345.188C300.804 345.364 301.916 345.596 303.028 345.796ZM256.5 372.004L225.1 334.316L227.86 320.5H285.148L287.916 334.308L256.5 372.004ZM344.5 224.5H168.5V168.5C168.5 146.444 186.444 128.5 208.492 128.5L254.604 128.492C275.42 143.852 300.956 152.5 328.052 152.5C337.124 152.5 344.5 159.876 344.5 168.948V224.5ZM360.5 223.028V177.98C369.788 181.292 376.5 190.092 376.5 200.508C376.5 210.924 369.788 219.716 360.5 223.028ZM152.5 223.028C143.212 219.716 136.5 210.916 136.5 200.5C136.5 190.084 143.212 181.284 152.5 177.972V223.028ZM153.02 161.252C147.404 162.324 142.22 164.556 137.7 167.708C136.908 163.204 136.5 158.636 136.5 154.028V142.164C136.5 112.116 153.196 85.092 180.076 71.66L182.46 70.468L183.652 68.084C197.092 41.196 224.116 24.5 254.164 24.5H276.708C331.732 24.5 376.5 69.268 376.5 124.292V142.812C376.5 150.892 375.452 158.852 373.532 166.628C369.292 163.988 364.564 162.108 359.468 161.204C355.972 147.06 343.268 136.5 328.052 136.5C286.964 136.5 250.028 113.668 231.652 76.924L217.34 84.084C222.596 94.596 229.18 104.132 236.836 112.5H208.492C180.076 112.5 156.596 133.796 153.02 161.252ZM168.5 248.5V240.5H344.5V248.5C344.5 279.372 319.38 304.5 288.5 304.5H224.5C193.62 304.5 168.5 279.372 168.5 248.5ZM213.324 345.188L245.228 383.476L215.188 408.508L209.964 345.796C211.084 345.596 212.196 345.364 213.324 345.188ZM72.5 488.5C46.028 488.5 24.5 466.972 24.5 440.5C24.5 414.028 46.028 392.5 72.5 392.5C98.972 392.5 120.5 414.028 120.5 440.5C120.5 466.972 98.972 488.5 72.5 488.5ZM360.5 488.5V424.5H344.5V488.5H168.5V424.5H152.5V488.5H114.692C128.028 476.764 136.5 459.62 136.5 440.5C136.5 425.548 131.308 411.812 122.684 400.9C140.444 376.26 165.548 358.38 194.236 349.604L201.812 440.492L256.5 394.908L311.196 440.492L318.772 349.604C347.468 358.38 372.564 376.26 390.316 400.908C381.692 411.812 376.5 425.548 376.5 440.5C376.5 459.62 384.972 476.764 398.308 488.5H360.5ZM440.5 488.5C414.028 488.5 392.5 466.972 392.5 440.5C392.5 414.028 414.028 392.5 440.5 392.5C466.972 392.5 488.5 414.028 488.5 440.5C488.5 466.972 466.972 488.5 440.5 488.5Z" fill="#A31D07"/>
<path d="M90.8438 410.844L72.4997 429.188L54.1557 410.844L42.8438 422.156L61.1877 440.5L42.8438 458.844L54.1557 470.156L72.4997 451.812L90.8438 470.156L102.156 458.844L83.8117 440.5L102.156 422.156L90.8438 410.844Z" fill="#A31D07"/>
<path d="M432.5 453.188L422.156 442.844L410.844 454.156L432.5 475.812L478.156 430.156L466.844 418.844L432.5 453.188Z" fill="#A31D07"/>
<path d="M464.5 168.5H480.5V104.5H416.5V120.5H464.5V168.5Z" fill="#A31D07"/>
<path d="M464.5 344.5H416.5V360.5H480.5V296.5H464.5V344.5Z" fill="#A31D07"/>
<path d="M32.5 296.5V360.5H96.5V344.5H48.5V296.5H32.5Z" fill="#A31D07"/>
<path d="M48.5 120.5H96.5V104.5H32.5V168.5H48.5V120.5Z" fill="#A31D07"/>
</svg>
