<svg width="513" height="513" viewBox="0 0 513 513" fill="none" xmlns="http://www.w3.org/2000/svg">
<g clip-path="url(#clip0_770_3673)">
<path d="M344.647 334.712C341.028 333.256 337.979 332.51 335.825 331.973V322.297C340.708 322.996 346.544 326.111 347.209 326.993L352.332 317.317C345.475 313.4 340.531 312.272 336.609 311.91V304.724H331.7V311.91C316.098 313.539 313.777 326.611 316.297 333.183C318.653 339.332 326.06 341.27 332.483 343.143V352.605C326.222 351.737 319.468 348.106 318.467 346.842L313.344 357.017C318.652 360.554 325.396 362.588 331.7 363.135V371.46H336.609V363.207C343.151 362.933 349.449 360.647 352.404 354.741C354.182 351.178 356.597 339.52 344.647 334.712ZM332.48 330.977C329.171 329.938 327.5 328.747 327.5 326.352C327.5 323.886 329.16 322.509 332.48 322.225V330.977ZM335.824 352.748V344.21C337.484 344.78 338.812 345.408 339.808 346.096C341.941 347.569 342.826 352.475 335.824 352.748Z" fill="#A31D07"/>
<path d="M333.2 264.186C270.529 264.186 241.091 342.186 285.245 384.876C298.177 397.378 315.207 404.264 333.2 404.264C370.513 404.264 400.804 375.062 402.157 337.841C404.071 294.828 370.863 264.186 333.2 264.186ZM387.205 337.24C386.144 366.433 362.422 389.3 333.2 389.3C303.198 389.3 279.716 365.331 279.176 336.58C278.29 302.067 304.071 279.15 333.2 279.15C364.535 279.15 388.59 304.754 387.205 337.24Z" fill="#A31D07"/>
<path d="M144.369 168.749C114.623 168.749 115.164 168.572 111.177 169.308V163.803C111.177 152.99 119.974 144.193 130.787 144.193C138.696 144.193 145.793 148.902 148.867 156.189C150.472 159.997 154.86 161.781 158.668 160.174C162.475 158.569 164.26 154.179 162.653 150.373C157.235 137.528 144.726 129.229 130.787 129.229C111.723 129.229 96.2134 144.739 96.2134 163.803V176.245C88.7554 182.341 83.9844 191.607 83.9844 201.969V229.136C83.9844 247.453 98.8864 262.355 117.204 262.355H144.369C162.686 262.355 177.589 247.453 177.589 229.136V201.969C177.589 183.651 162.686 168.749 144.369 168.749ZM162.625 229.135C162.625 239.201 154.435 247.39 144.369 247.39H117.204C107.138 247.39 98.9484 239.201 98.9484 229.135V201.968C98.9484 191.901 107.137 183.712 117.204 183.712H144.369C154.435 183.712 162.625 191.901 162.625 201.968V229.135Z" fill="#A31D07"/>
<path d="M129.724 196.393C125.592 196.393 122.242 199.742 122.242 203.875V215.553C122.242 219.686 125.592 223.035 129.724 223.035C133.856 223.035 137.206 219.686 137.206 215.553V203.875C137.206 199.741 133.856 196.393 129.724 196.393Z" fill="#A31D07"/>
<path d="M488.847 223.641H479.665V215.168C479.665 202.157 469.085 191.516 456.011 191.516C452.615 191.516 262.247 191.516 260.935 191.516C260.005 170.117 253.82 149.242 242.876 130.817C240.767 127.265 236.176 126.096 232.623 128.205C229.07 130.315 227.901 134.906 230.011 138.458C274.774 213.818 221.726 311.257 132.234 312.462C67.672 313.21 15.464 260.973 15.464 197.157C15.464 133.568 67.198 81.8341 130.787 81.8341C160.01 81.8341 187.909 92.8381 209.344 112.818C212.367 115.636 217.101 115.469 219.919 112.447C222.736 109.424 222.57 104.69 219.547 101.871C195.332 79.3001 163.81 66.8691 130.787 66.8691C58.946 66.8711 0.5 125.317 0.5 197.158C0.5 265.729 53.748 322.095 121.066 327.083C121.066 334.088 121.066 382.557 121.066 390.355C121.066 403.397 131.677 414.007 144.719 414.007H153.902V422.479C153.902 435.521 164.513 446.131 177.555 446.131C182.035 446.131 378.122 446.131 382.24 446.131C386.372 446.131 389.722 442.781 389.722 438.649C389.722 434.516 386.372 431.167 382.24 431.167H230.062C226.836 398.801 201.156 372.953 168.867 369.456C168.867 355.061 168.867 335.865 168.867 321.768C210.37 308.856 241.32 277.218 254.313 238.606C262.796 238.606 429.269 238.606 436.342 238.606C439.567 270.975 465.248 296.824 497.537 300.322V369.457C465.248 372.955 439.568 398.801 436.342 431.168H417.157C413.025 431.168 409.675 434.517 409.675 438.65C409.675 442.782 413.025 446.132 417.157 446.132C424.565 446.132 481.525 446.132 488.848 446.132C501.891 446.132 512.501 435.522 512.501 422.48V376.527C512.501 368.506 512.501 251.028 512.501 247.295C512.5 234.251 501.89 223.641 488.847 223.641ZM153.902 399.042H144.719C139.928 399.042 136.03 395.144 136.03 390.354V352.4C142.278 353.271 148.321 355.228 153.902 358.199C153.902 374.119 153.902 383.978 153.902 399.042ZM153.902 341.751C148.179 339.486 142.173 337.994 136.03 337.327V327.34C142.015 327.093 148.124 326.43 153.902 325.391V341.751ZM215 431.167H177.556C172.764 431.167 168.867 427.269 168.867 422.479C168.867 402.927 168.867 398.593 168.867 384.524C192.887 387.863 211.908 407.046 215 431.167ZM258.364 223.641C259.499 218.167 260.327 212.233 260.735 206.48H403.506C404.096 212.36 405.442 218.125 407.492 223.641H258.364ZM423.767 223.641C421.09 218.259 419.334 212.458 418.567 206.48H456.01C460.802 206.48 464.699 210.378 464.699 215.168V223.641C449.856 223.641 438.68 223.641 423.767 223.641ZM497.536 285.253C473.516 281.913 454.494 262.727 451.403 238.605C465.346 238.605 474.471 238.605 488.847 238.605C493.639 238.605 497.536 242.503 497.536 247.293V285.253ZM497.537 422.479C497.537 427.269 493.638 431.167 488.847 431.167H451.398C454.482 407.059 473.508 387.865 497.537 384.524V422.479Z" fill="#A31D07"/>
<path d="M130.787 93.4102C73.5811 93.4102 27.0391 139.951 27.0391 197.158C27.0391 254.364 73.5801 300.906 130.787 300.906C187.993 300.906 234.535 254.365 234.535 197.158C234.534 139.952 187.993 93.4102 130.787 93.4102ZM130.787 285.941C81.8321 285.941 42.0031 246.113 42.0031 197.157C42.0031 148.202 81.8311 108.373 130.787 108.373C179.742 108.373 219.571 148.201 219.571 197.157C219.57 246.114 179.742 285.941 130.787 285.941Z" fill="#A31D07"/>
</g>
<defs>
<clipPath id="clip0_770_3673">
<rect width="512.001" height="512.001" fill="white" transform="translate(0.5 0.5)"/>
</clipPath>
</defs>
</svg>
