<svg width="512" height="512" viewBox="0 0 512 512" fill="none" xmlns="http://www.w3.org/2000/svg">
<path d="M116.82 103.121L107.168 99.5973C103.197 98.4322 100.088 95.5529 98.6427 91.699C97.4216 88.4389 97.5392 84.9043 98.9788 81.7338C100.418 78.5633 103.006 76.149 106.261 74.9279C109.515 73.7011 113.05 73.8187 116.226 75.2639C119.397 76.7036 121.817 79.2915 123.032 82.5516C124.119 85.4533 127.351 86.9097 130.247 85.8286C133.143 84.7419 134.611 81.5097 133.524 78.6137C131.25 72.5528 126.757 67.741 120.859 65.0634C119.229 64.324 117.548 63.8143 115.84 63.4502V58.1119C115.84 55.0198 113.33 52.5103 110.238 52.5103C107.146 52.5103 104.636 55.0198 104.636 58.1119V63.8255C103.863 64.0327 103.085 64.1616 102.323 64.4417C89.8146 69.1358 83.4512 83.1286 88.1453 95.637C90.8341 102.818 96.6205 108.185 103.662 110.235L113.313 113.758C117.285 114.923 120.394 117.803 121.839 121.656C124.365 128.384 120.943 135.907 114.215 138.428C107.482 140.954 99.9703 137.531 97.444 130.804C96.3573 127.908 93.1251 126.451 90.2291 127.527C87.3331 128.614 85.8655 131.846 86.9522 134.742C89.9658 142.769 96.8166 148.202 104.636 149.872V155.255C104.636 158.347 107.146 160.856 110.238 160.856C113.33 160.856 115.84 158.347 115.84 155.255V149.558C116.613 149.351 117.386 149.211 118.147 148.925C124.208 146.651 129.02 142.158 131.698 136.26C134.375 130.367 134.599 123.785 132.325 117.724C129.642 110.537 123.861 105.176 116.82 103.121Z" fill="#A6231F"/>
<path d="M360.472 279.98H215.25C212.158 279.98 209.648 277.476 209.648 274.378C209.648 271.281 212.158 268.777 215.25 268.777H360.472C363.569 268.777 366.073 271.281 366.073 274.378C366.073 277.476 363.569 279.98 360.472 279.98Z" fill="#A6231F"/>
<path d="M338.131 250.012H237.582C234.49 250.012 231.98 247.502 231.98 244.41C231.98 241.318 234.49 238.809 237.582 238.809H338.131C341.228 238.809 343.732 241.318 343.732 244.41C343.732 247.502 341.228 250.012 338.131 250.012Z" fill="#A6231F"/>
<path d="M159.078 275.494C154.832 275.494 150.648 274.558 146.772 272.569C139.092 268.637 133.804 261.333 131.877 252.006C130.045 243.133 131.518 233.409 136.011 224.631C140.503 215.853 147.539 208.986 155.807 205.277C164.495 201.396 173.519 201.412 181.199 205.35C196.62 213.254 201.449 234.759 191.96 253.294C184.857 267.164 171.71 275.494 159.078 275.494ZM168.797 213.601C166.075 213.601 163.224 214.234 160.389 215.506C154.44 218.172 149.326 223.225 145.987 229.74C142.649 236.254 141.54 243.357 142.851 249.743C144.072 255.681 147.281 260.246 151.88 262.599C161.795 267.674 175.312 261.215 181.989 248.18C188.666 235.145 186.022 220.407 176.09 215.321C173.855 214.173 171.385 213.601 168.797 213.601Z" fill="#A6231F"/>
<path d="M416.554 275.538C412.274 275.538 407.877 274.575 403.558 272.637C395.284 268.94 388.254 262.061 383.762 253.289C374.273 234.753 379.096 213.248 394.517 205.345C402.208 201.407 411.21 201.384 419.909 205.272C428.183 208.974 435.213 215.848 439.705 224.625C449.194 243.161 444.371 264.666 428.95 272.564C425.079 274.552 420.878 275.538 416.554 275.538ZM406.919 213.601C404.331 213.601 401.861 214.173 399.62 215.321C389.694 220.407 387.05 235.151 393.722 248.18C397.06 254.695 402.174 259.747 408.123 262.414C413.652 264.89 419.231 264.94 423.836 262.599C433.762 257.512 436.406 242.769 429.734 229.734C426.396 223.219 421.281 218.167 415.332 215.5C412.492 214.234 409.647 213.601 406.919 213.601Z" fill="#A6231F"/>
<path d="M506.774 371.141C502.433 356.929 488.11 348.169 473.517 350.773C471.26 351.177 468.879 351.703 466.571 352.157C466.762 351.126 466.891 350.073 466.891 348.986V297.709C467.921 294.41 468.61 290.959 468.812 287.358L470.935 248.925C472.392 222.637 462.751 196.679 444.484 177.706L425.579 158.084L402.769 101.076C398.574 90.6182 389.118 83.3137 378.077 82.0086C318.219 74.9281 257.509 74.9281 197.644 82.0086C186.603 83.3137 177.142 90.6238 172.952 101.082L150.137 158.084L131.237 177.706C112.97 196.673 103.33 222.631 104.781 248.925L106.904 287.363C107.072 290.45 109.75 292.819 112.808 292.64C115.894 292.472 118.264 289.828 118.09 286.736L115.967 248.303C114.685 225.107 123.193 202.208 139.304 185.476L157.419 166.666C243.986 162.145 331.73 162.145 418.297 166.666L436.412 185.476C452.528 202.208 461.031 225.107 459.754 248.303L457.631 286.736C456.713 303.311 442.989 316.295 426.391 316.295H352.467C349.369 316.295 346.865 318.799 346.865 321.897C346.865 324.995 349.369 327.499 352.467 327.499H381.029V348.981C381.029 358.492 388.765 366.228 398.277 366.228H407.575C405.256 366.839 402.993 367.421 400.646 368.037C387.113 371.594 373.204 375.235 359.413 378.552C354.444 355.809 334.592 338.791 310.797 337.99L300.075 337.632C283.517 337.632 265.536 331.257 248.154 325.096C230.879 318.967 213.015 312.632 196.44 312.632C171.642 312.632 141.746 316.609 108.013 346.085C105.235 348.51 101.997 349.877 98.3559 349.815L90.9001 349.474V330.232C90.9001 327.135 88.3906 324.631 85.2985 324.631H9.53129C6.4392 324.631 3.92969 327.135 3.92969 330.232V481.195C3.92969 484.293 6.4392 486.797 9.53129 486.797H85.3041C88.3962 486.797 90.9057 484.293 90.9057 481.195V459.125H117.872C126.907 459.125 135.954 460.122 144.748 462.077L225.417 480.069C232.643 481.683 240.037 482.501 247.437 482.501C247.924 482.501 248.417 482.495 248.91 482.489L293.555 481.84C306.87 481.649 319.815 478.882 332.015 473.633L490.244 406.806C504.08 400.863 511.177 385.526 506.774 371.141ZM163.368 155.182L183.355 105.244C186.015 98.5949 191.992 93.9568 198.961 93.1333C257.951 86.1593 317.776 86.1593 376.767 93.1333C383.729 93.9512 389.712 98.5949 392.367 105.244L412.354 155.182C329.691 151.082 246.031 151.082 163.368 155.182ZM392.227 348.981V327.499H426.391C437.718 327.499 448.047 323.045 455.688 315.763V348.981C455.688 352.314 452.976 355.025 449.643 355.025H398.271C394.944 355.031 392.227 352.314 392.227 348.981ZM79.7081 475.594H15.1329V335.834H79.7025L79.7081 475.594ZM485.863 396.499L327.629 463.326C316.757 468.004 305.234 470.463 293.398 470.636L248.753 471.286C241.734 471.365 234.71 470.664 227.865 469.141L147.196 451.148C137.601 449.003 127.736 447.922 117.883 447.922H90.9169V360.688L98.0758 361.013H98.2438C104.512 361.013 110.601 358.711 115.396 354.521C146.334 327.482 173.731 323.835 196.451 323.835C211.099 323.835 227.282 329.571 244.418 335.649C262.696 342.13 281.584 348.835 299.879 348.83H299.89L310.421 349.182C329.108 349.815 344.692 363.214 348.518 381.095C301.089 391.839 256.691 397.071 236.194 378.272C233.915 376.182 230.369 376.333 228.279 378.619C226.184 380.899 226.341 384.439 228.621 386.534C261.105 416.334 333.5 397.289 403.503 378.877C429.287 372.093 453.649 365.69 475.484 361.797C484.547 360.19 493.381 365.606 496.075 374.412C498.792 383.33 494.389 392.83 485.863 396.499Z" fill="#A6231F"/>
<path d="M85.3026 183.958C84.692 183.958 84.0702 183.857 83.4596 183.644C50.7463 172.261 28.7656 141.329 28.7656 106.678C28.7656 61.7531 65.3161 25.2026 110.241 25.2026C132.003 25.2026 152.466 33.6779 167.853 49.0654C170.044 51.2557 170.044 54.7959 167.853 56.9861C165.663 59.1763 162.123 59.1763 159.933 56.9861C146.657 43.7103 129.012 36.4058 110.241 36.4058C71.4946 36.4058 39.9688 67.926 39.9688 106.678C39.9688 136.568 58.9246 163.248 87.1399 173.062C90.0583 174.076 91.6044 177.269 90.5905 180.193C89.7839 182.507 87.616 183.958 85.3026 183.958Z" fill="#A6231F"/>
</svg>
