<svg width="512" height="224" viewBox="0 0 512 224" fill="none" xmlns="http://www.w3.org/2000/svg">
<path d="M68 156C64.0444 156 60.1776 157.173 56.8886 159.371C53.5996 161.568 51.0362 164.692 49.5224 168.346C48.0087 172.001 47.6126 176.022 48.3843 179.902C49.156 183.781 51.0608 187.345 53.8579 190.142C56.6549 192.939 60.2186 194.844 64.0982 195.616C67.9778 196.387 71.9992 195.991 75.6537 194.478C79.3082 192.964 82.4318 190.4 84.6294 187.111C86.827 183.822 88 179.956 88 176C88 170.696 85.8929 165.609 82.1421 161.858C78.3914 158.107 73.3043 156 68 156ZM68 188C65.6266 188 63.3066 187.296 61.3332 185.978C59.3598 184.659 57.8217 182.785 56.9135 180.592C56.0052 178.399 55.7676 175.987 56.2306 173.659C56.6936 171.331 57.8365 169.193 59.5147 167.515C61.193 165.836 63.3312 164.694 65.6589 164.231C67.9867 163.768 70.3995 164.005 72.5922 164.913C74.7849 165.822 76.6591 167.36 77.9776 169.333C79.2962 171.307 80 173.627 80 176C80 179.183 78.7357 182.235 76.4853 184.485C74.2349 186.736 71.1826 188 68 188ZM420 156C416.044 156 412.178 157.173 408.889 159.371C405.6 161.568 403.036 164.692 401.522 168.346C400.009 172.001 399.613 176.022 400.384 179.902C401.156 183.781 403.061 187.345 405.858 190.142C408.655 192.939 412.219 194.844 416.098 195.616C419.978 196.387 423.999 195.991 427.654 194.478C431.308 192.964 434.432 190.4 436.629 187.111C438.827 183.822 440 179.956 440 176C440 170.696 437.893 165.609 434.142 161.858C430.391 158.107 425.304 156 420 156ZM420 188C417.627 188 415.307 187.296 413.333 185.978C411.36 184.659 409.822 182.785 408.913 180.592C408.005 178.399 407.768 175.987 408.231 173.659C408.694 171.331 409.836 169.193 411.515 167.515C413.193 165.836 415.331 164.694 417.659 164.231C419.987 163.768 422.399 164.005 424.592 164.913C426.785 165.822 428.659 167.36 429.978 169.333C431.296 171.307 432 173.627 432 176C432 179.183 430.736 182.235 428.485 184.485C426.235 186.736 423.183 188 420 188Z" fill="#A5241F"/>
<path d="M508.28 115.76C506.794 108.396 503.094 101.661 497.675 96.457C492.257 91.2529 485.378 87.8279 477.96 86.64L396 73.92L312 10.68C302.776 3.74014 291.543 -0.00868797 280 1.51193e-05H97.8C85.6203 0.0211858 73.5862 2.64859 62.506 7.70573C51.4258 12.7629 41.5561 20.1327 33.56 29.32C12 54.16 0 64 0 84.92V168C0 172 1.44 171.36 24 179C23.9343 184.778 25.0074 190.513 27.158 195.876C29.3085 201.24 32.4944 206.127 36.5337 210.259C44.6916 218.605 55.8305 223.367 67.5 223.5C79.1695 223.633 90.4138 219.124 98.7591 210.966C107.105 202.808 111.867 191.67 112 180H376.4C377.442 190.894 382.507 201.009 390.606 208.37C398.705 215.731 409.256 219.81 420.2 219.81C431.144 219.81 441.695 215.731 449.794 208.37C457.893 201.009 462.958 190.894 464 180C502.76 180 501.28 180.48 502.92 178.8C511.44 170 512 169.96 512 168C512 126.12 513 139.64 508.28 115.76ZM502.88 132H480.44C481.026 130.297 482.014 128.76 483.32 127.52C487.72 123 492.52 124 501.28 124L502.88 132ZM307.28 17.04L387.72 77.84L369.16 84H236V8.00002C279.28 8.00002 291.72 5.28001 307.28 17.04ZM228 84H146.56L154.16 8.00002H228V84ZM115.04 8.00002H146.12L138.52 84H103.28C99.4332 79.7325 96.8585 74.473 95.8476 68.8173C94.8366 63.1616 95.4298 57.3359 97.56 52C111.04 18.08 114.64 9.20002 115.04 8.00002ZM56.56 44.84C33.36 85.48 38.48 84 8 84C8.64043 76.1922 11.7827 68.7994 16.96 62.92C38.48 38.36 45.6 28 62.68 19.16C63.1353 28.1289 61.0115 37.0405 56.56 44.84ZM8 116H16V124H8V116ZM68 212C58.7032 212.008 49.7638 208.419 43.0534 201.984C36.3431 195.55 32.3822 186.769 32 177.48C32.3576 176.553 32.3576 175.527 32 174.6C32.2745 167.546 34.6169 160.728 38.7358 154.995C42.8547 149.262 48.5683 144.866 55.1659 142.355C61.7634 139.844 68.9537 139.328 75.8423 140.871C82.7309 142.414 89.0138 145.948 93.9094 151.034C98.805 156.12 102.097 162.533 103.377 169.476C104.656 176.418 103.866 183.584 101.105 190.081C98.3438 196.578 93.7334 202.119 87.8474 206.017C81.9613 209.914 75.0593 211.995 68 212ZM420 212C412.88 212 405.92 209.889 399.999 205.933C394.079 201.977 389.465 196.355 386.74 189.777C384.016 183.198 383.303 175.96 384.692 168.977C386.081 161.993 389.509 155.579 394.544 150.544C399.579 145.509 405.993 142.081 412.977 140.692C419.96 139.303 427.198 140.016 433.777 142.74C440.355 145.465 445.977 150.079 449.933 155.999C453.889 161.92 456 168.88 456 176C456 185.548 452.207 194.705 445.456 201.456C438.705 208.207 429.548 212 420 212ZM498.2 172H464C462.958 161.106 457.893 150.991 449.794 143.63C441.695 136.269 431.144 132.19 420.2 132.19C409.256 132.19 398.705 136.269 390.606 143.63C382.507 150.991 377.442 161.106 376.4 172H112C111.169 161.075 106.292 150.853 98.3226 143.333C90.3532 135.814 79.8651 131.539 68.9101 131.344C57.9551 131.148 47.3214 135.048 39.0894 142.279C30.8574 149.509 25.6193 159.551 24.4 170.44L8 164.92V132H20C21.0609 132 22.0783 131.579 22.8284 130.828C23.5786 130.078 24 129.061 24 128V112C24 110.939 23.5786 109.922 22.8284 109.172C22.0783 108.421 21.0609 108 20 108H8V92H22.36C27.3646 91.9958 32.2793 90.6691 36.6062 88.1544C40.9332 85.6398 44.5188 82.0263 47 77.68C63 49.68 73.68 36.8 70.08 13.32C84.96 7.44002 95.44 8.00002 106.48 8.00002L90.12 48.92C87.2853 55.9809 86.5892 63.7194 88.1183 71.1728C89.6474 78.6262 93.3342 85.4656 98.72 90.84C100.56 92.64 83 92 369.8 92C370.72 92 368.88 92.52 395.48 83.68C400.48 82 382.52 79.96 476.72 94.52C482.277 95.4283 487.445 97.9479 491.584 101.766C495.722 105.585 498.648 110.534 500 116H491.72C473.12 116 466.56 140 475.72 140H504V166.16L498.2 172Z" fill="#A5241F"/>
<path d="M264 116H248C246.939 116 245.922 116.421 245.172 117.172C244.421 117.922 244 118.939 244 120C244 121.061 244.421 122.078 245.172 122.828C245.922 123.579 246.939 124 248 124H264C265.061 124 266.078 123.579 266.828 122.828C267.579 122.078 268 121.061 268 120C268 118.939 267.579 117.922 266.828 117.172C266.078 116.421 265.061 116 264 116Z" fill="#A5241F"/>
</svg>
