<svg width="110" height="111" viewBox="0 0 110 111" fill="none" xmlns="http://www.w3.org/2000/svg">
<mask id="mask0_440_10" style="mask-type:luminance" maskUnits="userSpaceOnUse" x="0" y="0" width="110" height="111">
<path d="M110 0H0V111H110V0Z" fill="white"/>
</mask>
<g mask="url(#mask0_440_10)">
<path d="M87.9349 75.5197L57.1938 106.261C54.0492 109.405 48.943 109.405 45.7984 106.261L15.0573 75.5197C11.9127 72.3751 11.9127 67.2689 15.0573 64.1243L45.7984 33.3832C48.943 30.2386 54.0492 30.2386 57.1938 33.3832L87.9349 64.1243C91.0795 67.2689 91.0795 72.3751 87.9349 75.5197Z" fill="#D868FF"/>
<path d="M87.9349 75.5197L57.1938 106.261C54.0492 109.405 48.943 109.405 45.7984 106.261L15.0573 75.5197C11.9127 72.3751 11.9127 67.2689 15.0573 64.1243L45.7984 33.3832C48.943 30.2386 54.0492 30.2386 57.1938 33.3832L87.9349 64.1243C91.0795 67.2689 91.0795 72.3751 87.9349 75.5197Z" stroke="#210E36" stroke-width="2.50016"/>
<path d="M61.7403 40.9128L55.507 47.7398C53.6131 49.8136 50.9347 50.9959 48.1263 50.9959H28.5488L45.8816 33.6621C49.0038 30.5399 54.0658 30.5399 57.189 33.6621L61.6774 38.1515C62.4329 38.907 62.4609 40.1233 61.7403 40.9128Z" fill="#210E36"/>
<path d="M61.7403 40.9128L55.507 47.7398C53.6131 49.8136 50.9347 50.9959 48.1263 50.9959H28.5488L45.8816 33.6621C49.0038 30.5399 54.0658 30.5399 57.189 33.6621L61.6774 38.1515C62.4329 38.907 62.4609 40.1233 61.7403 40.9128Z" stroke="#210E36" stroke-width="2.50053" stroke-linecap="round"/>
<path d="M62.0293 44.9994V39.003L74.0222 50.9959H68.0258C64.7137 50.9959 62.0293 48.3115 62.0293 44.9994Z" fill="#210E36"/>
<path d="M62.0293 44.9994V39.003L74.0222 50.9959H68.0258C64.7137 50.9959 62.0293 48.3115 62.0293 44.9994Z" stroke="#210E36" stroke-width="2.50053" stroke-linecap="round"/>
<path d="M15.6953 63.6044L30.0469 63.7203" stroke="#210E36" stroke-width="2.50053"/>
<path d="M48.0371 64.2201H53.5339" stroke="#210E36" stroke-width="2.50053"/>
<path d="M30.0469 63.7203C30.0469 62.0643 31.3891 60.7221 33.0451 60.7221H46.0375C47.6935 60.7221 49.0357 62.0643 49.0357 63.7203V66.7186C49.0357 71.134 45.4558 74.7139 41.0404 74.7139H38.0422C33.6268 74.7139 30.0469 71.134 30.0469 66.7186V63.7203Z" fill="white"/>
<path d="M30.0469 63.7203C30.0469 62.0643 31.3891 60.7221 33.0451 60.7221H46.0375C47.6935 60.7221 49.0357 62.0643 49.0357 63.7203V66.7186C49.0357 71.134 45.4558 74.7139 41.0404 74.7139H38.0422C33.6268 74.7139 30.0469 71.134 30.0469 66.7186V63.7203Z" stroke="#210E36" stroke-width="2.50053"/>
<path d="M54.0332 63.7203C54.0332 62.0643 55.3754 60.7221 57.0314 60.7221H70.0238C71.6798 60.7221 73.022 62.0643 73.022 63.7203V66.7186C73.022 71.134 69.4421 74.7139 65.0267 74.7139H62.0285C57.6131 74.7139 54.0332 71.134 54.0332 66.7186V63.7203Z" fill="white"/>
<path d="M54.0332 63.7203C54.0332 62.0643 55.3754 60.7221 57.0314 60.7221H70.0238C71.6798 60.7221 73.022 62.0643 73.022 63.7203V66.7186C73.022 71.134 69.4421 74.7139 65.0267 74.7139H62.0285C57.6131 74.7139 54.0332 71.134 54.0332 66.7186V63.7203Z" stroke="#210E36" stroke-width="2.50053"/>
<path d="M74.0215 64.2201L87.9833 64.1961" stroke="#210E36" stroke-width="2.50053"/>
<path d="M61.0293 83.7086C58.5357 86.1681 54.9808 87.7062 51.0351 87.7062C47.0895 87.7062 43.5346 86.1681 41.041 83.7086" stroke="#210E36" stroke-width="2.50053" stroke-linecap="round"/>
<path d="M42.0406 59.7227C44.2483 59.7227 46.0383 61.5127 46.0383 63.7204C46.0383 65.9281 44.2483 67.718 42.0406 67.718C39.8329 67.718 38.043 65.9281 38.043 63.7204C38.043 61.5127 39.8329 59.7227 42.0406 59.7227Z" fill="#210E36"/>
<path d="M66.0269 59.7227C68.2347 59.7227 70.0246 61.5127 70.0246 63.7204C70.0246 65.9281 68.2347 67.718 66.0269 67.718C63.8192 67.718 62.0293 65.9281 62.0293 63.7204C62.0293 61.5127 63.8192 59.7227 66.0269 59.7227Z" fill="#210E36"/>
<mask id="mask1_440_10" style="mask-type:alpha" maskUnits="userSpaceOnUse" x="11" y="13" width="22" height="22">
<path d="M19.4872 14.984C20.6546 13.0571 23.4489 13.0571 24.6162 14.984L26.0204 17.3036C26.4382 17.9932 27.1158 18.4849 27.9003 18.6688L30.5397 19.2875C32.7325 19.8022 33.5959 22.4616 32.1248 24.1666L30.3539 26.2184C29.8282 26.828 29.5693 27.6256 29.6363 28.4291L29.8631 31.1295C30.051 33.3742 27.7894 35.0182 25.7126 34.1457L23.214 33.0944C22.4715 32.7825 21.634 32.7825 20.8914 33.0944L18.3909 34.1457C16.3141 35.0182 14.0544 33.3742 14.2423 31.1295L14.4692 28.4291C14.5361 27.6256 14.2763 26.828 13.7496 26.2184L11.9786 24.1666C10.5065 22.4616 11.372 19.8022 13.5647 19.2875L16.2032 18.6688C16.9877 18.4849 17.6663 17.9932 18.0831 17.3036L19.4872 14.984Z" fill="#FFD600"/>
</mask>
<g mask="url(#mask1_440_10)">
<path d="M21.9276 32.4396C22.5404 32.4396 23.0388 32.9381 23.0388 33.5508C23.0388 34.1636 22.5404 34.662 21.9276 34.662C21.3149 34.662 20.8164 34.1636 20.8164 33.5508C20.8164 32.9381 21.3149 32.4396 21.9276 32.4396Z" fill="#FFD600"/>
<path d="M21.9279 32.4393C22.5413 32.4393 23.0394 32.9374 23.0394 33.5508C23.0394 34.1643 22.5413 34.6623 21.9279 34.6623C21.3145 34.6623 20.8164 34.1643 20.8164 33.5508C20.8164 32.9374 21.3145 32.4393 21.9279 32.4393Z" fill="#FFD600"/>
</g>
<mask id="mask2_440_10" style="mask-type:alpha" maskUnits="userSpaceOnUse" x="41" y="3" width="23" height="22">
<path d="M49.7197 4.98994C50.887 3.06307 53.6813 3.06307 54.8486 4.98994L56.2528 7.30957C56.6706 7.99917 57.3482 8.48988 58.1327 8.67477L60.7722 9.29341C62.9649 9.8081 63.8284 12.4675 62.3572 14.1725L60.5863 16.2243C60.0606 16.834 59.8017 17.6315 59.8687 18.435L60.0956 21.1354C60.2835 23.3801 58.0218 25.0242 55.945 24.1517L53.4465 23.1003C52.7039 22.7875 51.8664 22.7875 51.1238 23.1003L48.6233 24.1517C46.5465 25.0242 44.2869 23.3801 44.4747 21.1354L44.7016 18.435C44.7686 17.6315 44.5087 16.834 43.982 16.2243L42.2111 14.1725C40.7389 12.4675 41.6044 9.8081 43.7971 9.29341L46.4356 8.67477C47.2201 8.48988 47.8987 7.99917 48.3155 7.30957L49.7197 4.98994Z" fill="#FFD600"/>
</mask>
<g mask="url(#mask2_440_10)">
<path d="M52.285 22.5385C52.8978 22.5385 53.3963 23.0369 53.3963 23.6497C53.3963 24.2625 52.8978 24.7609 52.285 24.7609C51.6723 24.7609 51.1738 24.2625 51.1738 23.6497C51.1738 23.0369 51.6723 22.5385 52.285 22.5385Z" fill="#FFD600"/>
<path d="M52.2853 22.5382C52.8988 22.5382 53.3968 23.0363 53.3968 23.6497C53.3968 24.2631 52.8988 24.7612 52.2853 24.7612C51.6719 24.7612 51.1738 24.2631 51.1738 23.6497C51.1738 23.0363 51.6719 22.5382 52.2853 22.5382Z" fill="#FFD600"/>
</g>
<mask id="mask3_440_10" style="mask-type:alpha" maskUnits="userSpaceOnUse" x="73" y="13" width="22" height="22">
<path d="M81.4504 15.2347C82.6177 13.3078 85.4131 13.3078 86.5804 15.2347L87.9836 17.5543C88.4013 18.2439 89.0799 18.7356 89.8645 18.9195L92.5029 19.5381C94.6956 20.0528 95.5601 22.7123 94.089 24.4173L92.318 26.4691C91.7913 27.0787 91.5325 27.8762 91.5994 28.6798L91.8263 31.3802C92.0142 33.6249 89.7535 35.2689 87.6767 34.3964L85.1772 33.345C84.4346 33.0332 83.5971 33.0332 82.8546 33.345L80.354 34.3964C78.2773 35.2689 76.0176 33.6249 76.2055 31.3802L76.4313 28.6798C76.4983 27.8762 76.2395 27.0787 75.7128 26.4691L73.9418 24.4173C72.4697 22.7123 73.3342 20.0528 75.5269 19.5381L78.1663 18.9195C78.9509 18.7356 79.6295 18.2439 80.0462 17.5543L81.4504 15.2347Z" fill="#FFD600"/>
</mask>
<g mask="url(#mask3_440_10)">
<path d="M84.0155 32.6033C84.6283 32.6033 85.1267 33.1018 85.1267 33.7146C85.1267 34.3273 84.6283 34.8258 84.0155 34.8258C83.4028 34.8258 82.9043 34.3273 82.9043 33.7146C82.9043 33.1018 83.4028 32.6033 84.0155 32.6033Z" fill="#FFD600"/>
<path d="M84.0158 32.6031C84.6292 32.6031 85.1273 33.1011 85.1273 33.7146C85.1273 34.328 84.6292 34.8261 84.0158 34.8261C83.4024 34.8261 82.9043 34.328 82.9043 33.7146C82.9043 33.1011 83.4024 32.6031 84.0158 32.6031Z" fill="#FFD600"/>
</g>
<path d="M19.4872 14.984C20.6546 13.0571 23.4489 13.0571 24.6162 14.984L26.0204 17.3036C26.4382 17.9932 27.1158 18.4849 27.9003 18.6688L30.5397 19.2875C32.7325 19.8022 33.5959 22.4616 32.1248 24.1666L30.3539 26.2184C29.8282 26.828 29.5693 27.6256 29.6363 28.4291L29.8631 31.1295C30.051 33.3742 27.7894 35.0182 25.7126 34.1457L23.214 33.0944C22.4715 32.7825 21.634 32.7825 20.8914 33.0944L18.3909 34.1457C16.3141 35.0182 14.0544 33.3742 14.2423 31.1295L14.4692 28.4291C14.5361 27.6256 14.2763 26.828 13.7496 26.2184L11.9786 24.1666C10.5065 22.4616 11.372 19.8022 13.5647 19.2875L16.2032 18.6688C16.9877 18.4849 17.6663 17.9932 18.0831 17.3036L19.4872 14.984Z" stroke="#210E36" stroke-width="2.50053"/>
<path d="M49.7197 4.98994C50.887 3.06307 53.6813 3.06307 54.8486 4.98994L56.2528 7.30957C56.6706 7.99917 57.3482 8.48988 58.1327 8.67477L60.7722 9.29341C62.9649 9.8081 63.8284 12.4675 62.3572 14.1725L60.5863 16.2243C60.0606 16.834 59.8017 17.6315 59.8687 18.435L60.0956 21.1354C60.2835 23.3801 58.0218 25.0242 55.945 24.1517L53.4465 23.1003C52.7039 22.7875 51.8664 22.7875 51.1238 23.1003L48.6233 24.1517C46.5465 25.0242 44.2869 23.3801 44.4747 21.1354L44.7016 18.435C44.7686 17.6315 44.5087 16.834 43.982 16.2243L42.2111 14.1725C40.7389 12.4675 41.6044 9.8081 43.7971 9.29341L46.4356 8.67477C47.2201 8.48988 47.8987 7.99917 48.3155 7.30957L49.7197 4.98994Z" stroke="#210E36" stroke-width="2.50053"/>
<path d="M81.4504 15.2347C82.6177 13.3078 85.4131 13.3078 86.5804 15.2347L87.9836 17.5543C88.4013 18.2439 89.0799 18.7356 89.8645 18.9195L92.5029 19.5381C94.6956 20.0528 95.5601 22.7123 94.089 24.4173L92.318 26.4691C91.7913 27.0787 91.5325 27.8762 91.5994 28.6798L91.8263 31.3802C92.0142 33.6249 89.7535 35.2689 87.6767 34.3964L85.1772 33.345C84.4346 33.0332 83.5971 33.0332 82.8546 33.345L80.354 34.3964C78.2773 35.2689 76.0176 33.6249 76.2055 31.3802L76.4313 28.6798C76.4983 27.8762 76.2395 27.0787 75.7128 26.4691L73.9418 24.4173C72.4697 22.7123 73.3342 20.0528 75.5269 19.5381L78.1663 18.9195C78.9509 18.7356 79.6295 18.2439 80.0462 17.5543L81.4504 15.2347Z" stroke="#210E36" stroke-width="2.50053"/>
<path d="M97.7817 52.7163H95.3461L81.4229 52.7531L80.129 56.3346L78.9715 55.0796C77.7763 53.7846 75.7489 53.7311 74.4865 54.962C73.2849 56.1331 73.2198 58.0441 74.3416 59.2939L80.0167 65.6175C80.0891 65.6983 80.129 65.8032 80.129 65.9113C80.129 71.0144 84.2667 75.1511 89.3699 75.1511H91.4497C97.7009 75.1511 102.768 70.0836 102.768 63.8314V57.702C102.768 54.9484 100.535 52.7163 97.7817 52.7163Z" fill="#D868FF"/>
<path d="M87.59 61.3612L87.5512 47.3813C87.5512 45.3308 85.89 43.6696 83.8406 43.6696C81.7901 43.6696 80.1289 45.3308 80.1289 47.3813C80.1289 47.3813 80.1352 51.9566 80.1394 55.8886" fill="#D868FF"/>
<path d="M87.59 61.3612L87.5512 47.3813C87.5512 45.3308 85.89 43.6696 83.8406 43.6696C81.7901 43.6696 80.1289 45.3308 80.1289 47.3813C80.1289 47.3813 80.1352 51.9566 80.1394 55.8886" stroke="#210E36" stroke-width="2.49963" stroke-linecap="round" stroke-linejoin="round"/>
<path d="M79.7155 55.8865C79.3839 55.5266 78.9715 55.0796 78.9715 55.0796C77.7763 53.7846 75.7489 53.7311 74.4865 54.962C73.2849 56.1331 73.2198 58.0441 74.3416 59.2939L80.0167 65.6175C80.0891 65.6983 80.129 65.8032 80.129 65.9113C80.129 71.0144 84.2667 75.1511 89.3699 75.1511H91.4497C97.7009 75.1511 102.768 70.0836 102.768 63.8314V57.702C102.768 54.9484 100.535 52.7163 97.7817 52.7163H95.3461C95.3461 52.7163 91.3679 52.7268 87.6646 52.7363" stroke="#210E36" stroke-width="2.49963" stroke-linecap="round" stroke-linejoin="round"/>
<path d="M95.346 52.7163V61.401M80.1289 56.3346L83.5058 59.7913C86.0999 62.4473 87.5512 66.011 87.5512 69.7237" stroke="#210E36" stroke-width="2.49963" stroke-linecap="round" stroke-linejoin="round"/>
<path d="M87.5527 58.7104V59.4933C87.5527 61.7358 89.4227 63.524 91.6621 63.4253C93.7661 63.3319 95.3528 61.592 95.3528 59.4859V58.3536" stroke="#210E36" stroke-width="2.49963" stroke-linecap="round"/>
<path d="M95.3438 58.3557V59.9298C95.3438 61.9583 96.9881 63.5974 99.0166 63.5974C101.045 63.5974 102.76 61.9583 102.76 59.9298V58.3557" stroke="#210E36" stroke-width="2.49963" stroke-linecap="round"/>
</g>
</svg>
