<svg width="110" height="111" viewBox="0 0 110 111" fill="none" xmlns="http://www.w3.org/2000/svg">
<mask id="mask0_441_103" style="mask-type:luminance" maskUnits="userSpaceOnUse" x="0" y="0" width="110" height="111">
<path d="M110 0H0V111H110V0Z" fill="white"/>
</mask>
<g mask="url(#mask0_441_103)">
<path d="M94.005 64.1071L60.1532 97.9589C56.6904 101.422 51.0674 101.422 47.6046 97.9589L13.7528 64.1071C10.2901 60.6443 10.2901 55.0213 13.7528 51.5586L47.6046 17.7068C51.0674 14.244 56.6904 14.244 60.1532 17.7068L94.005 51.5586C97.4678 55.0213 97.4678 60.6443 94.005 64.1071Z" fill="#F8CE46"/>
<path d="M94.005 64.1071L60.1532 97.9589C56.6904 101.422 51.0674 101.422 47.6046 97.9589L13.7528 64.1071C10.2901 60.6443 10.2901 55.0213 13.7528 51.5586L47.6046 17.7068C51.0674 14.244 56.6904 14.244 60.1532 17.7068L94.005 51.5586C97.4678 55.0213 97.4678 60.6443 94.005 64.1071Z" stroke="#210E36" stroke-width="2.50016"/>
<path d="M54.849 80.3065C61.2034 80.3065 66.5846 75.975 68.4128 69.9962C69.1482 67.5908 67.0399 65.5075 64.5252 65.5075H45.1727C42.658 65.5075 40.5497 67.5908 41.2851 69.9962C43.1134 75.975 48.4945 80.3065 54.849 80.3065Z" fill="#210E36"/>
<path d="M54.849 68.9227C51.3906 68.9227 48.5879 70.9797 48.5879 74.5008C51.7184 77.6882 57.9796 77.6882 61.1101 74.5008C61.1101 70.9797 58.3074 68.9227 54.849 68.9227Z" fill="#E62D51"/>
<path d="M21.3386 70.9986L18.8062 80.4496C17.2284 86.3379 20.7219 92.3889 26.6103 93.9667L32.1962 95.4634C34.9408 96.1988 37.7613 94.5704 38.4964 91.8269C38.5577 91.5982 38.7783 91.4522 39.0114 91.4841L41.4003 91.8142C43.1822 92.0607 44.8688 90.9428 45.3347 89.2043C45.8002 87.467 44.8987 85.6544 43.2323 84.9769L41.8283 84.4062C41.1364 84.1254 40.7619 83.3721 40.9552 82.6508L42.5542 76.6833C43.6862 72.4586 41.3059 68.1202 37.2043 66.7666C37.0549 66.7172 36.9032 66.6718 36.7504 66.6309L31.391 65.1948C31.1271 65.1241 30.864 65.0678 30.6 65.0241C26.4826 64.3404 22.4411 66.8839 21.3386 70.9986Z" fill="#F8CE46"/>
<path d="M37.2078 66.7534L33.8172 79.4076M30.6103 64.9856L27.2196 77.6398M38.4964 91.8269C38.5574 91.5993 38.7783 91.4522 39.0125 91.4843L41.4011 91.8156C43.183 92.062 44.8688 90.9428 45.3344 89.2054C45.7999 87.4681 44.8995 85.6558 43.2331 84.9783L41.828 84.4073C41.1364 84.1254 40.7619 83.3721 40.9552 82.6508L42.5542 76.6833C43.7274 72.3047 41.129 67.8041 36.7504 66.6309L31.391 65.1948C27.0124 64.0216 22.5118 66.62 21.3386 70.9986L18.8059 80.4507C17.2284 86.3379 20.723 92.3892 26.6103 93.9667L32.1973 95.4637C34.9408 96.1988 37.7613 94.5704 38.4964 91.8269Z" stroke="#210E36" stroke-width="2.49989" stroke-linecap="round"/>
<path d="M88.3496 70.9208L90.882 80.3718C92.4597 86.2602 88.9662 92.3111 83.0779 93.8889L77.4919 95.3857C74.7473 96.1211 71.9268 94.4926 71.1917 91.7491C71.1304 91.5204 70.9098 91.3745 70.6767 91.4063L68.2879 91.7364C66.506 91.9829 64.8193 90.865 64.3535 89.1265C63.888 87.3892 64.7894 85.5766 66.4558 84.8991L67.8598 84.3285C68.5518 84.0476 68.9262 83.2944 68.733 82.573L67.134 76.6055C66.002 72.3809 68.3822 68.0425 72.4838 66.6889C72.6332 66.6394 72.7849 66.5941 72.9377 66.5531L78.2972 65.1171C78.5611 65.0463 78.8241 64.99 79.0882 64.9463C83.2055 64.2627 87.247 66.8061 88.3496 70.9208Z" fill="#F8CE46"/>
<path d="M72.4803 66.6757L75.871 79.3298M79.0779 64.9079L82.4685 77.562M71.1917 91.7491C71.1307 91.5215 70.9098 91.3745 70.6756 91.4066L68.2871 91.7378C66.5052 91.9843 64.8193 90.865 64.3538 89.1276C63.8882 87.3903 64.7886 85.578 66.455 84.9005L67.8601 84.3296C68.5518 84.0476 68.9262 83.2944 68.733 82.573L67.134 76.6055C65.9607 72.2269 68.5591 67.7263 72.9377 66.5531L78.2972 65.1171C82.6758 63.9438 87.1763 66.5422 88.3496 70.9208L90.8823 80.3729C92.4597 86.2602 88.9651 92.3114 83.0779 93.8889L77.4908 95.386C74.7473 96.1211 71.9268 94.4926 71.1917 91.7491Z" stroke="#210E36" stroke-width="2.49989" stroke-linecap="round"/>
<path d="M68.5098 47.2922C72.0729 47.2922 75.2126 49.1125 77.0477 51.8731" stroke="#210E36" stroke-width="2.49989" stroke-linecap="round"/>
<path d="M40.618 47.2933C37.0548 47.2933 33.9152 49.1136 32.0801 51.8742" stroke="#210E36" stroke-width="2.49989" stroke-linecap="round"/>
<path d="M40.618 51.8469C43.1327 51.8469 45.1715 53.8857 45.1715 56.4004C45.1715 58.9151 43.1327 60.954 40.618 60.954C38.1033 60.954 36.0645 58.9151 36.0645 56.4004C36.0645 53.8857 38.1033 51.8469 40.618 51.8469Z" fill="#210E36"/>
<path d="M67.9383 51.8469C70.453 51.8469 72.4918 53.8857 72.4918 56.4004C72.4918 58.9151 70.453 60.954 67.9383 60.954C65.4236 60.954 63.3848 58.9151 63.3848 56.4004C63.3848 53.8857 65.4236 51.8469 67.9383 51.8469Z" fill="#210E36"/>
<path d="M82.6479 26.8301V38.3052H37.8403H28.551C27.3434 38.3052 26.3652 37.3271 26.3652 36.1194V26.8301C26.3652 17.1724 34.1934 9.34418 43.8511 9.34418H50.9548H65.162C74.8197 9.34418 82.6479 17.1724 82.6479 26.8301Z" fill="#61BDA1"/>
<path d="M82.6479 38.3052V26.8301C82.6479 17.1724 74.8197 9.34418 65.162 9.34418H50.9548M82.6479 38.3052H104.505M82.6479 38.3052H37.8403M50.9548 9.34418H43.8511C34.1934 9.34418 26.3652 17.1724 26.3652 26.8301V36.1194C26.3652 37.3271 27.3434 38.3052 28.551 38.3052H37.8403M50.9548 9.34418C43.7123 9.34418 37.8403 15.2162 37.8403 22.4586V38.3052" stroke="#210E36" stroke-width="2.50048" stroke-linecap="round"/>
<path d="M69.5163 17.9155L74.1533 22.5526C75.0068 23.4061 75.0068 24.7897 74.1533 25.6432L69.5163 30.2802C68.6627 31.1338 67.2792 31.1338 66.4256 30.2802L61.7886 25.6432C60.9351 24.7897 60.9351 23.4061 61.7886 22.5526L66.4256 17.9155C67.2792 17.062 68.6627 17.062 69.5163 17.9155Z" fill="#EC2950"/>
<path d="M69.5163 17.9155L74.1533 22.5526C75.0068 23.4061 75.0068 24.7897 74.1533 25.6432L69.5163 30.2802C68.6627 31.1338 67.2792 31.1338 66.4256 30.2802L61.7886 25.6432C60.9351 24.7897 60.9351 23.4061 61.7886 22.5526L66.4256 17.9155C67.2792 17.062 68.6627 17.062 69.5163 17.9155Z" stroke="#210E36" stroke-width="2.50048" stroke-linecap="round"/>
</g>
</svg>
