<svg width="110" height="111" viewBox="0 0 110 111" fill="none" xmlns="http://www.w3.org/2000/svg">
<mask id="mask0_441_195" style="mask-type:luminance" maskUnits="userSpaceOnUse" x="0" y="0" width="110" height="111">
<path d="M110 0H0V111H110V0Z" fill="white"/>
</mask>
<g mask="url(#mask0_441_195)">
<path d="M25.154 101.345H27.412H85.5912C94.1053 101.345 101.008 94.4426 101.008 85.9285C101.008 82.3186 100.334 78.7411 99.0222 75.3787L96.3122 68.4336C93.8966 62.2432 92.6564 55.6561 92.6564 49.0116V44.4518C92.6564 24.273 76.2983 7.91498 56.1195 7.91498C35.9408 7.91498 19.5827 24.273 19.5827 44.4518V48.1034C19.5827 55.3335 18.0815 62.4854 15.1753 69.1048L12.5645 75.0541C10.9965 78.6232 10.1875 82.4794 10.1875 86.3784C10.1875 94.6441 16.8884 101.345 25.154 101.345Z" fill="#210E36"/>
<path d="M94.067 63.6006L62.4796 95.188C59.2484 98.4192 54.0016 98.4192 50.7704 95.188L19.183 63.6006C15.9518 60.3694 15.9518 55.1226 19.183 51.8914L50.7704 20.304C54.0016 17.0728 59.2484 17.0728 62.4796 20.304L94.067 51.8914C97.2982 55.1226 97.2982 60.3694 94.067 63.6006Z" fill="#81CDB8"/>
<path d="M94.067 63.6006L62.4796 95.188C59.2484 98.4192 54.0016 98.4192 50.7704 95.188L19.183 63.6006C15.9518 60.3694 15.9518 55.1226 19.183 51.8914L50.7704 20.304C54.0016 17.0728 59.2484 17.0728 62.4796 20.304L94.067 51.8914C97.2982 55.1226 97.2982 60.3694 94.067 63.6006Z" stroke="#210E36" stroke-width="2.50006"/>
<path d="M67.3002 28.1783L60.7893 35.3093C58.8111 37.4754 56.0134 38.7103 53.08 38.7103H32.6309L50.7354 20.6048C53.9966 17.3436 59.284 17.3436 62.5462 20.6048L67.2344 25.294C68.0236 26.0832 68.0528 27.3536 67.3002 28.1783Z" fill="#210E36"/>
<path d="M67.3002 28.1783L60.7893 35.3093C58.8111 37.4754 56.0134 38.7103 53.08 38.7103H32.6309L50.7354 20.6048C53.9966 17.3436 59.284 17.3436 62.5462 20.6048L67.2344 25.294C68.0236 26.0832 68.0528 27.3536 67.3002 28.1783Z" stroke="#210E36" stroke-width="2.50016" stroke-linecap="round"/>
<path d="M67.6016 32.4469V26.1834L80.1285 38.7103H73.865C70.4055 38.7103 67.6016 35.9064 67.6016 32.4469Z" fill="#210E36"/>
<path d="M67.6016 32.4469V26.1834L80.1285 38.7103H73.865C70.4055 38.7103 67.6016 35.9064 67.6016 32.4469Z" stroke="#210E36" stroke-width="2.50016" stroke-linecap="round"/>
<path d="M26.1864 27.2076L29.6204 32.046C29.8117 32.3152 30.2083 32.3256 30.4124 32.0668L34.0965 27.4151C36.626 24.2202 34.423 19.5102 30.35 19.4033C26.276 19.2965 23.8279 23.8844 26.1864 27.2076Z" fill="#FF8A00"/>
<path d="M26.1864 27.2076L29.6204 32.046C29.8117 32.3152 30.2083 32.3256 30.4124 32.0668L34.0965 27.4151C36.626 24.2202 34.423 19.5102 30.35 19.4033C26.276 19.2965 23.8279 23.8844 26.1864 27.2076Z" stroke="#210E36" stroke-width="2.50016" stroke-linecap="round"/>
<path d="M33.854 36.6422L30.42 31.8038C30.2286 31.5346 29.8321 31.5242 29.6279 31.783L25.9439 36.4347C23.4144 39.6295 25.6185 44.3396 29.6925 44.4465C33.7655 44.5534 36.2125 39.9653 33.854 36.6422Z" fill="#FF8A00"/>
<path d="M33.854 36.6422L30.42 31.8038C30.2286 31.5346 29.8321 31.5242 29.6279 31.783L25.9439 36.4347C23.4144 39.6295 25.6185 44.3396 29.6925 44.4465C33.7655 44.5534 36.2125 39.9653 33.854 36.6422Z" stroke="#210E36" stroke-width="2.50016" stroke-linecap="round"/>
<path d="M35.4612 28.1663L30.0261 31.5001C29.713 31.6913 29.7012 32.1421 30.0038 32.3495L35.2567 35.9637C38.297 38.0558 42.446 35.9425 42.5428 32.2535C42.6395 28.5646 38.6071 26.2365 35.4612 28.1663Z" fill="#FF8A00"/>
<path d="M35.4612 28.1663L30.0261 31.5001C29.713 31.6913 29.7012 32.1421 30.0038 32.3495L35.2567 35.9637C38.297 38.0558 42.446 35.9425 42.5428 32.2535C42.6395 28.5646 38.6071 26.2365 35.4612 28.1663Z" stroke="#210E36" stroke-width="2.50016" stroke-linecap="round"/>
<path d="M24.5784 35.6835L30.0137 32.3487C30.3267 32.1575 30.3386 31.7067 30.0359 31.4993L24.783 27.8861C21.7427 25.7951 17.5938 27.9063 17.497 31.5953C17.4002 35.2842 21.4326 37.6133 24.5784 35.6835Z" fill="#FF8A00"/>
<path d="M24.5784 35.6835L30.0137 32.3487C30.3267 32.1575 30.3386 31.7067 30.0359 31.4993L24.783 27.8861C21.7427 25.7951 17.5938 27.9063 17.497 31.5953C17.4002 35.2842 21.4326 37.6133 24.5784 35.6835Z" stroke="#210E36" stroke-width="2.50016" stroke-linecap="round"/>
<path d="M18.9551 104.55L25.1077 103.907C29.0487 103.496 31.9103 99.9684 31.4988 96.0273L30.4839 86.3072C30.4509 85.9915 30.4791 85.6716 30.5673 85.3669L32.5591 78.4611C33.1337 76.4671 31.9324 74.3948 29.9163 73.9035C27.9086 73.4144 25.8961 74.6875 25.4774 76.7104L23.8564 84.5439L19.7339 76.0039C18.7598 73.9859 16.3244 73.1536 14.3183 74.1541C12.1271 75.2479 11.4141 78.0299 12.8114 80.0428L16.8038 85.7933L12.047 89.368L9.81551 91.1379C8.81505 91.9329 8.28211 93.1079 8.27138 94.3023C8.26456 95.1115 8.49648 95.9276 8.98558 96.6419L12.2896 101.469C13.7774 103.642 16.3365 104.823 18.9551 104.55Z" fill="#81CDB8"/>
<path d="M18.9551 104.55L25.1077 103.907C29.0487 103.496 31.9103 99.9684 31.4988 96.0273L30.4839 86.3072C30.4509 85.9915 30.4791 85.6716 30.5673 85.3669L32.5591 78.4611C33.1337 76.4671 31.9324 74.3948 29.9163 73.9035C27.9086 73.4144 25.8961 74.6875 25.4774 76.7104L23.8564 84.5439L19.7339 76.0039C18.7598 73.9859 16.3244 73.1536 14.3183 74.1541C12.1271 75.2479 11.4141 78.0299 12.8114 80.0428L16.8038 85.7933L12.047 89.368L9.81551 91.1379C8.81505 91.9329 8.28211 93.1079 8.27138 94.3023C8.26456 95.1115 8.49648 95.9276 8.98558 96.6419L12.2896 101.469C13.7774 103.642 16.3365 104.823 18.9551 104.55Z" stroke="#210E36" stroke-width="2.50014" stroke-linejoin="round"/>
<path d="M12.0484 89.3669L18.3966 95.2561C19.3487 96.1397 20.7675 96.2952 21.8881 95.6385C23.5945 94.6375 23.847 92.2708 22.3919 90.932L16.8052 85.7922" stroke="#210E36" stroke-width="2.50014"/>
<path d="M12.0497 89.3678L15.9904 93.5426C17.6561 95.3058 16.9437 98.2017 14.6487 98.9892C13.7127 99.3106 12.6738 99.0497 12.0008 98.3238L7.9063 93.9045" stroke="#210E36" stroke-width="2.50014"/>
<path d="M49.8555 77.8569H57.6848C61.4324 77.8569 64.4702 74.8192 64.4702 71.0715" stroke="#210E36" stroke-width="2.50016" stroke-linecap="round"/>
<path d="M17.4941 52.8031H34.1967" stroke="#210E36" stroke-width="2.50016"/>
<path d="M80.1289 52.8031H95.7876" stroke="#210E36" stroke-width="2.50016"/>
<path d="M52.9863 52.8031H60.2937" stroke="#210E36" stroke-width="2.50016"/>
<path d="M33.1523 54.8909C33.1523 49.7016 37.3583 45.4957 42.5475 45.4957C47.7368 45.4957 51.9427 49.7016 51.9427 54.8909C51.9427 60.0802 47.7368 64.2861 42.5475 64.2861C37.3583 64.2861 33.1523 60.0802 33.1523 54.8909Z" fill="#210E36"/>
<path d="M33.1523 54.8909C33.1523 49.7016 37.3583 45.4957 42.5475 45.4957C47.7368 45.4957 51.9427 49.7016 51.9427 54.8909C51.9427 60.0802 47.7368 64.2861 42.5475 64.2861C37.3583 64.2861 33.1523 60.0802 33.1523 54.8909Z" stroke="#210E36" stroke-width="2.50016"/>
<path d="M61.3379 54.8909C61.3379 60.0802 65.5438 64.2861 70.7331 64.2861C75.9224 64.2861 80.1283 60.0802 80.1283 54.8909C80.1283 49.7016 75.9224 45.4957 70.7331 45.4957C65.5438 45.4957 61.3379 49.7016 61.3379 54.8909Z" fill="#210E36"/>
<path d="M61.3379 54.8909C61.3379 60.0802 65.5438 64.2861 70.7331 64.2861C75.9224 64.2861 80.1283 60.0802 80.1283 54.8909C80.1283 49.7016 75.9224 45.4957 70.7331 45.4957C65.5438 45.4957 61.3379 49.7016 61.3379 54.8909Z" stroke="#210E36" stroke-width="2.50016"/>
<path d="M68.6465 56.9787L73.866 51.7592" stroke="white" stroke-width="2.50016" stroke-linecap="round"/>
<path d="M39.416 56.9787L44.6356 51.7592" stroke="white" stroke-width="2.50016" stroke-linecap="round"/>
</g>
</svg>
