<svg width="110" height="111" viewBox="0 0 110 111" fill="none" xmlns="http://www.w3.org/2000/svg">
<mask id="mask0_441_147" style="mask-type:luminance" maskUnits="userSpaceOnUse" x="0" y="0" width="110" height="111">
<path d="M110 0H0V111H110V0Z" fill="white"/>
</mask>
<g mask="url(#mask0_441_147)">
<path d="M91.1109 66.1428L60.6711 96.5826C57.5574 99.6963 52.5012 99.6963 49.3874 96.5826L18.9477 66.1428C15.834 63.0291 15.834 57.9729 18.9477 54.8592L49.3874 24.4194C52.5012 21.3057 57.5574 21.3057 60.6711 24.4194L91.1109 54.8592C94.2246 57.9729 94.2246 63.0291 91.1109 66.1428Z" fill="#C292FF"/>
<path d="M91.1109 66.1428L60.6711 96.5826C57.5574 99.6963 52.5012 99.6963 49.3874 96.5826L18.9477 66.1428C15.834 63.0291 15.834 57.9729 18.9477 54.8592L49.3874 24.4194C52.5012 21.3057 57.5574 21.3057 60.6711 24.4194L91.1109 54.8592C94.2246 57.9729 94.2246 63.0291 91.1109 66.1428Z" stroke="#210E36" stroke-width="2.49996"/>
<path d="M47.6616 55.3444C47.6616 57.6823 45.7674 59.5775 43.4295 59.5775C41.0906 59.5775 39.1953 57.6823 39.1953 55.3444C39.1953 53.0065 41.0906 51.1112 43.4295 51.1112C45.7674 51.1112 47.6616 53.0065 47.6616 55.3444Z" fill="#210E36"/>
<path d="M68.9566 55.3444C68.9566 57.6823 67.0623 59.5775 64.7244 59.5775C62.3865 59.5775 60.4902 57.6823 60.4902 55.3444C60.4902 53.0065 62.3865 51.1112 64.7244 51.1112C67.0623 51.1112 68.9566 53.0065 68.9566 55.3444Z" fill="#210E36"/>
<path d="M37.4004 63.7503C37.4004 62.863 38.1207 62.1428 39.009 62.1428H68.8906C69.7789 62.1428 70.4991 62.863 70.4991 63.7503C70.4991 72.9228 63.0901 80.359 53.9508 80.359C44.8104 80.359 37.4004 72.9228 37.4004 63.7503Z" fill="#210E36"/>
<path d="M47.0488 74.8925C48.8113 76.3643 51.3273 77.163 53.9499 77.163C56.5724 77.163 59.0884 76.3643 60.8509 74.8925C60.6949 73.3433 59.9948 72.1523 58.9647 71.3002C57.7595 70.3043 56.0081 69.7027 53.9499 69.7027C51.8916 69.7027 50.1402 70.3043 48.935 71.3002C47.9049 72.1523 47.2058 73.3433 47.0488 74.8925Z" fill="#E62D51"/>
<path d="M55.105 84.2351C45.343 84.2351 37.4289 92.1491 37.4289 101.912H30.4746C30.4746 88.3083 41.5022 77.2798 55.105 77.2798C68.7079 77.2798 79.7354 88.3083 79.7354 101.912H72.7811C72.7811 92.1491 64.8671 84.2351 55.105 84.2351Z" fill="white"/>
<path d="M55.105 84.2351C45.343 84.2351 37.4289 92.1491 37.4289 101.912H30.4746C30.4746 88.3083 41.5022 77.2798 55.105 77.2798C68.7079 77.2798 79.7354 88.3083 79.7354 101.912H72.7811C72.7811 92.1491 64.8671 84.2351 55.105 84.2351Z" stroke="#210E36" stroke-width="2.49986"/>
<path d="M64.756 77.9849C67.1834 75.5575 71.1198 75.5575 73.5482 77.9849L78.5751 83.0118C81.3959 85.8326 81.3959 90.4058 78.5751 93.2255L78.1425 93.6581C75.4133 96.3873 71.0192 96.4879 68.1683 93.8855L68.0365 93.7657L63.9874 89.5376L63.581 89.1101C60.884 86.2702 60.9423 81.7986 63.7108 79.0302L64.756 77.9849Z" fill="#C292FF"/>
<path d="M68.0365 93.7667L68.1683 93.8855C71.0192 96.4879 75.4133 96.3873 78.1435 93.6581L78.5751 93.2265C81.3959 90.4068 81.3959 85.8336 78.5751 83.0128L73.5482 77.9849C71.1198 75.5565 67.1844 75.5565 64.756 77.9849L63.7108 79.0301C60.9423 81.7986 60.884 86.2712 63.581 89.1111L63.9874 89.5386M68.0365 93.7667L73.5211 88.1805M68.0365 93.7667L63.9874 89.5386M63.9874 89.5386L69.1843 84.2331" stroke="#210E36" stroke-width="2.49986"/>
<path d="M60.0285 73.0224C61.4248 71.6684 63.654 71.7026 65.0071 73.0979L67.4587 75.6259L63.5042 79.4597C62.8955 80.0502 61.9248 80.0361 61.3343 79.4275L59.953 78C58.599 76.6037 58.6322 74.3765 60.0285 73.0224Z" fill="#C292FF"/>
<path d="M60.0285 73.0224C61.4248 71.6684 63.654 71.7026 65.0071 73.0979L67.4587 75.6259L63.5042 79.4597C62.8955 80.0502 61.9248 80.0361 61.3343 79.4275L59.953 78C58.599 76.6037 58.6322 74.3765 60.0285 73.0224Z" stroke="#210E36" stroke-width="2.49986"/>
<path d="M30.9728 103.2C27.4811 101.272 26.2135 96.8793 28.141 93.3865L30.6499 88.8385L32.0613 86.2813C33.4516 83.7623 36.6224 82.8469 39.1424 84.2371L41.438 85.5047C44.8181 87.3697 46.1329 91.5637 44.4238 95.0253L44.3453 95.1842L41.4058 100.247L41.1081 100.756C39.1283 104.135 34.8157 105.32 31.3863 103.428L30.9728 103.2Z" fill="#C292FF"/>
<path d="M44.3461 95.1842L44.4245 95.0253C46.1337 91.5637 44.8179 87.3697 41.4388 85.5047L39.1421 84.2371C36.6232 82.8469 33.4533 83.7623 32.0621 86.2813L30.6507 88.8385L28.1407 93.3865C26.2133 96.8793 27.4818 101.272 30.9736 103.2L31.3881 103.428C34.8164 105.32 39.1281 104.135 41.1088 100.756L41.4066 100.247M44.3461 95.1842L37.4581 91.4651M44.3461 95.1842L41.4066 100.247M41.4066 100.247L34.8677 96.7264" stroke="#210E36" stroke-width="2.49986"/>
<path d="M38.1203 79.6659C39.083 77.9769 41.2328 77.3874 42.9229 78.3501C44.6119 79.3128 45.2014 81.4636 44.2387 83.1527L42.4953 86.2119L36.377 82.7251L38.1203 79.6659Z" fill="#C292FF"/>
<path d="M38.1203 79.6659C39.083 77.9769 41.2328 77.3874 42.9229 78.3501C44.6119 79.3128 45.2014 81.4636 44.2387 83.1527L42.4953 86.2119L36.377 82.7251L38.1203 79.6659Z" stroke="#210E36" stroke-width="2.49986"/>
<path d="M98.4149 65.1879C105.221 58.3814 105.156 47.3267 98.269 40.6017L72.8831 15.8103C70.0533 13.0459 65.5264 13.0721 62.7297 15.8687L51.6036 26.9948C48.7597 29.8387 48.7869 34.4582 51.664 37.2689L84.3352 69.1736C87.165 71.938 91.6909 71.9108 94.4875 69.1142L97.5578 66.045L98.4149 65.1879Z" fill="#E62D51"/>
<path d="M97.5572 66.044L94.4869 69.1142C91.6903 71.9108 87.1644 71.938 84.3345 69.1746L51.6643 37.2689C48.7872 34.4582 48.7591 29.8387 51.604 26.9948L62.7291 15.8697C65.5257 13.0721 70.0527 13.0459 72.8825 15.8093L98.2684 40.6017C105.155 47.3267 105.221 58.3814 98.4142 65.1869L97.5572 66.044ZM97.5572 66.044L89.4399 57.9267" stroke="#210E36" stroke-width="2.49986"/>
<path d="M11.3763 65.041C4.62717 58.2919 4.62717 47.3488 11.3763 40.5997L42.3333 9.64268C49.0824 2.89356 60.0245 2.89356 66.7746 9.64268L71.3679 14.235L85.2313 28.0994C80.0737 22.9427 71.714 22.9427 66.5573 28.0994L25.6029 69.0539C22.7821 71.8736 18.2089 71.8736 15.3891 69.0539L12.3793 66.0429L11.3763 65.041Z" fill="#E62D51"/>
<path d="M12.3783 66.044L15.3872 69.0539C18.207 71.8746 22.7801 71.8746 25.6009 69.0539L66.5554 28.1004C71.712 22.9438 80.0717 22.9438 85.2294 28.1004L71.366 14.236M12.3783 66.044L11.3743 65.042C4.62522 58.2919 4.62522 47.3498 11.3743 40.5997L42.3314 9.64369C49.0805 2.89457 60.0245 2.89457 66.7737 9.64369L71.366 14.236M12.3783 66.044L22.2922 56.13M71.366 14.236C68.0925 10.9635 62.787 10.9635 59.5135 14.236L54.9866 18.7629" stroke="#210E36" stroke-width="2.49986"/>
</g>
</svg>
