<svg width="512" height="512" viewBox="0 0 512 512" fill="none" xmlns="http://www.w3.org/2000/svg">
<path d="M125.267 110.72C125.267 106.269 128.874 102.661 133.326 102.661H254.639C259.09 102.661 262.698 106.269 262.698 110.72C262.698 115.172 259.091 118.78 254.639 118.78H133.325C128.874 118.779 125.267 115.171 125.267 110.72ZM104.964 191.417H341.717C346.169 191.417 349.775 187.811 349.775 183.359C349.775 178.906 346.169 175.301 341.717 175.301H104.964C100.512 175.301 96.9057 178.906 96.9057 183.359C96.9057 187.811 100.512 191.417 104.964 191.417ZM104.961 264.057H243.608C248.058 264.057 251.669 260.449 251.669 255.997C251.669 251.546 248.059 247.938 243.608 247.938H104.961C100.51 247.938 96.9007 251.546 96.9007 255.997C96.9007 260.449 100.51 264.057 104.961 264.057ZM463.518 274.42C453.658 288.736 445.73 293.306 438.737 297.338C428.477 303.256 417.874 309.395 395.465 355.595L414.848 368.948C424.248 375.425 430.573 385.209 432.651 396.498C434.735 407.791 432.311 419.185 425.835 428.59L407.503 455.202V497.77C407.503 502.223 403.895 505.829 399.442 505.829L47.2377 505.83C45.1007 505.83 43.0497 504.982 41.5397 503.469C40.0277 501.958 39.1797 499.91 39.1797 497.772V14.2289C39.1797 9.77692 42.7847 6.16992 47.2377 6.16992H303.16C305.297 6.16992 307.348 7.01892 308.858 8.53092L405.136 104.814C406.65 106.323 407.5 108.372 407.5 110.512V193.556C408.542 193.298 409.575 193.013 410.646 192.816C424.48 190.272 438.458 193.259 450.031 201.232C461.61 209.203 469.385 221.21 471.933 235.035C474.481 248.857 471.489 262.845 463.518 274.42ZM391.382 489.71V456.93L228.538 344.752C224.871 342.227 223.949 337.209 226.473 333.544L246.23 304.864C254.219 293.267 267.453 286.343 281.626 286.343C290.329 286.343 298.713 288.948 305.869 293.877L325.243 307.224C360.366 269.872 362.393 257.728 364.264 246.035C365.542 238.064 366.986 229.028 376.847 214.714C380.791 208.986 385.728 204.199 391.382 200.503V113.85L311.218 33.6839V102.453H351.047C355.5 102.453 359.104 106.059 359.104 110.512C359.104 114.962 355.5 118.571 351.047 118.571H303.16C298.707 118.571 295.1 114.963 295.1 110.512V22.2869H55.2977V489.712L391.382 489.71ZM405.7 382.22L296.724 307.15C292.273 304.082 287.051 302.461 281.625 302.461C272.752 302.461 264.483 306.777 259.498 314.01L244.315 336.05L397.374 441.487L412.561 419.444C416.592 413.59 418.101 406.477 416.799 399.419C415.499 392.363 411.558 386.254 405.7 382.22ZM456.083 237.953C454.315 228.361 448.922 220.036 440.89 214.502C432.859 208.973 423.16 206.9 413.566 208.666C403.975 210.434 395.651 215.829 390.12 223.856C382.327 235.171 381.331 241.387 380.18 248.583C377.958 262.459 375.643 276.8 338.676 316.476L382.046 346.352C405.942 297.673 418.516 290.397 430.687 283.378C437 279.738 442.452 276.592 450.247 265.279C455.777 257.246 457.848 247.543 456.083 237.953ZM277.337 333.98C274.814 337.646 275.737 342.664 279.403 345.188L376.334 411.964C377.732 412.924 379.324 413.385 380.899 413.385C383.461 413.385 385.981 412.168 387.543 409.9C390.067 406.232 389.145 401.213 385.479 398.691L288.549 331.914C284.878 329.395 279.865 330.313 277.337 333.98ZM221.254 397.104C221.254 437.998 187.982 471.271 147.085 471.271C106.188 471.271 72.9167 437.998 72.9167 397.104C72.9167 356.207 106.188 322.936 147.085 322.936C187.982 322.936 221.254 356.206 221.254 397.104ZM205.134 397.104C205.134 365.094 179.094 339.053 147.085 339.053C115.076 339.053 89.0347 365.094 89.0347 397.104C89.0347 429.114 115.076 455.154 147.085 455.154C179.094 455.154 205.134 429.113 205.134 397.104ZM183.627 358.108C179.76 355.888 174.837 357.226 172.625 361.087L140.515 417.053L119.502 400.709C115.988 397.976 110.927 398.609 108.193 402.125C105.461 405.636 106.093 410.698 109.608 413.433L137.94 435.471C139.365 436.58 141.112 437.167 142.887 437.167C143.406 437.167 143.928 437.119 144.447 437.015C146.736 436.564 148.715 435.142 149.879 433.119L186.606 369.109C188.819 365.248 187.483 360.321 183.627 358.108Z" fill="#A6231F"/>
</svg>
