<svg width="512" height="512" viewBox="0 0 512 512" fill="none" xmlns="http://www.w3.org/2000/svg">
<path d="M220.064 318.56C218.528 318.56 216.976 318.104 215.624 317.16C212.104 314.704 211.256 309.864 213.712 306.352L280.808 210.488C283.264 206.968 288.104 206.12 291.616 208.576C295.136 211.032 295.984 215.872 293.528 219.384L226.432 315.248C224.92 317.408 222.512 318.56 220.064 318.56Z" fill="#A6231F"/>
<path d="M215.639 255.616C212.207 255.616 208.871 254.896 205.719 253.48C199.823 250.824 195.311 246.04 193.007 239.992C190.711 233.944 190.911 227.36 193.559 221.464C197.455 212.784 206.135 207.168 215.655 207.168C219.087 207.168 222.431 207.888 225.575 209.304C237.751 214.776 243.215 229.136 237.743 241.32C233.831 250.008 225.159 255.616 215.639 255.616ZM215.655 222.696C212.239 222.696 209.119 224.712 207.719 227.832C206.767 229.952 206.695 232.312 207.519 234.48C208.343 236.648 209.967 238.368 212.079 239.32C216.359 241.24 221.671 239.192 223.575 234.952C225.535 230.584 223.575 225.424 219.199 223.456C218.079 222.952 216.879 222.696 215.655 222.696Z" fill="#A6231F"/>
<path d="M294.359 318.56C290.647 318.56 287.031 317.784 283.623 316.256C277.239 313.392 272.351 308.208 269.863 301.664C267.383 295.12 267.599 288 270.471 281.616C274.695 272.224 284.079 266.152 294.375 266.152C298.087 266.152 301.703 266.928 305.111 268.456C311.495 271.32 316.383 276.504 318.871 283.048C321.359 289.592 321.143 296.712 318.271 303.096C314.047 312.488 304.663 318.56 294.359 318.56ZM294.375 281.672C290.175 281.672 286.351 284.144 284.631 287.976C283.463 290.576 283.375 293.48 284.391 296.144C285.399 298.808 287.391 300.92 289.991 302.088C295.295 304.448 301.767 301.936 304.111 296.728C305.279 294.128 305.367 291.224 304.351 288.56C303.343 285.896 301.351 283.784 298.751 282.616C297.351 281.992 295.887 281.672 294.375 281.672Z" fill="#A6231F"/>
<path d="M156.392 503.448C149.272 503.448 142.72 499.04 138.4 491.344L116.464 452.248C112.216 444.68 111.808 436.888 115.344 430.848C118.864 424.848 125.792 421.408 134.36 421.408L179.6 421.96C188.32 422.064 195.296 425.648 198.736 431.776C202.176 437.912 201.592 445.728 197.136 453.232L174.248 491.776C169.848 499.192 163.344 503.448 156.392 503.448ZM134.568 436.936C130.968 436.936 129.208 437.88 128.736 438.696C128.24 439.536 128.28 441.592 129.992 444.656L151.928 483.752C153.552 486.64 155.328 487.928 156.384 487.928C157.344 487.928 159.112 486.864 160.896 483.856L183.784 445.312C185.584 442.288 185.672 440.224 185.192 439.376C184.72 438.528 182.92 437.528 179.392 437.488L134.568 436.936C134.576 436.936 134.576 436.936 134.568 436.936Z" fill="#A6231F"/>
<path d="M177.055 437.48C176.999 437.48 176.959 437.48 176.903 437.48C172.615 437.392 169.207 433.848 169.295 429.56L170.719 357.904C170.799 353.624 174.343 350.488 178.631 350.296C182.919 350.384 186.327 353.928 186.239 358.216L184.815 429.872C184.735 434.104 181.271 437.48 177.055 437.48Z" fill="#A6231F"/>
<path d="M138.406 379.544C138.35 379.544 138.302 379.544 138.246 379.544C133.966 379.456 130.558 375.912 130.646 371.624L130.91 358.616C130.998 354.336 134.726 351.104 138.83 351.016C143.11 351.104 146.518 354.648 146.43 358.936L146.166 371.944C146.07 376.176 142.614 379.544 138.406 379.544Z" fill="#A6231F"/>
<path d="M137.711 412.216C137.655 412.216 137.615 412.216 137.559 412.216C133.271 412.128 129.863 408.584 129.951 404.296L130.127 395.576C130.215 391.288 134.111 387.976 138.039 387.968C142.327 388.056 145.735 391.6 145.647 395.888L145.471 404.608C145.391 408.84 141.927 412.216 137.711 412.216Z" fill="#A6231F"/>
<path d="M255.431 156.968C248.311 156.968 241.759 152.56 237.439 144.864L215.503 105.768C211.255 98.2 210.847 90.408 214.383 84.376C217.895 78.376 224.831 74.936 233.399 74.936L278.639 75.488C287.359 75.592 294.335 79.176 297.775 85.312C301.215 91.44 300.631 99.264 296.175 106.76L273.287 145.304C268.895 152.712 262.383 156.968 255.431 156.968ZM233.615 90.456C230.007 90.456 228.255 91.4 227.783 92.208C227.295 93.048 227.335 95.104 229.047 98.168L250.983 137.264C252.719 140.352 254.471 141.44 255.439 141.44C256.407 141.44 258.167 140.376 259.951 137.376L282.839 98.832C284.639 95.808 284.727 93.744 284.247 92.904C283.767 92.056 281.967 91.048 278.447 91.008L233.615 90.456C233.623 90.456 233.623 90.456 233.615 90.456Z" fill="#A6231F"/>
<path d="M276.094 91.0079C276.038 91.0079 275.99 91.0079 275.926 91.0079C271.646 90.9119 268.238 87.3679 268.334 83.0799L269.758 16.1519C269.846 11.8719 273.102 8.51992 277.686 8.55992C281.966 8.65592 285.374 12.1999 285.278 16.4879L283.854 83.4159C283.766 87.6399 280.31 91.0079 276.094 91.0079Z" fill="#A6231F"/>
<path d="M237.456 33.072C237.368 33.072 237.28 33.072 237.2 33.072C232.92 32.936 229.552 29.352 229.696 25.064L229.96 16.784C230.088 12.584 233.536 9.27197 237.704 9.27197H237.96C242.24 9.40797 245.608 12.992 245.464 17.28L245.2 25.56C245.072 29.76 241.624 33.072 237.456 33.072Z" fill="#A6231F"/>
<path d="M236.758 65.736C236.702 65.736 236.662 65.736 236.606 65.736C232.318 65.648 228.91 62.104 228.998 57.816L229.174 49.096C229.254 44.808 232.87 41.432 237.086 41.488C241.374 41.576 244.782 45.12 244.694 49.408L244.518 58.128C244.438 62.36 240.974 65.736 236.758 65.736Z" fill="#A6231F"/>
<path d="M362.335 427.112C355.647 427.112 349.423 423.04 345.239 415.936L324.087 380.024C319.863 372.856 319.351 365.392 322.671 359.528C325.991 353.664 332.663 350.264 340.967 350.184L382.647 349.824C391.135 349.824 397.775 353.136 401.143 358.904C404.527 364.704 404.119 372.16 400.047 379.36L379.519 415.632C375.383 422.928 369.119 427.112 362.335 427.112ZM382.919 365.352L341.095 365.712C337.847 365.744 336.447 366.68 336.175 367.176C335.895 367.672 335.807 369.344 337.447 372.152L358.599 408.064C360.255 410.856 361.759 411.592 362.327 411.592C362.887 411.592 364.391 410.84 365.999 408L386.527 371.728C388.127 368.896 388.015 367.224 387.727 366.736C387.439 366.256 386.079 365.352 382.919 365.352Z" fill="#A6231F"/>
<path d="M380.43 365.392C376.15 365.392 372.678 361.928 372.67 357.64L372.598 295.896C372.59 291.608 376.062 288.128 380.35 288.12C384.63 288.12 388.11 291.584 388.118 295.872L388.19 357.616C388.198 361.912 384.726 365.392 380.43 365.392Z" fill="#A6231F"/>
<path d="M343.335 310.184C339.055 310.184 335.583 306.72 335.575 302.44L335.559 295.232C335.551 290.944 339.015 287.464 343.303 287.456H343.319C347.599 287.456 351.071 290.92 351.079 295.2L351.095 302.408C351.103 306.696 347.639 310.176 343.351 310.184C343.343 310.184 343.343 310.184 343.335 310.184Z" fill="#A6231F"/>
<path d="M343.373 342.68C339.093 342.68 335.621 339.208 335.613 334.928L335.605 326.824C335.597 322.536 339.069 319.056 343.357 319.056H343.365C347.645 319.056 351.117 322.528 351.125 326.808L351.133 334.912C351.141 339.2 347.661 342.672 343.373 342.68Z" fill="#A6231F"/>
<path d="M406.616 327.656C405.6 327.656 404.576 327.456 403.584 327.032C399.632 325.36 397.792 320.8 399.472 316.856C407.64 297.616 411.784 277.16 411.784 256.056C411.784 194.568 375.472 138.672 319.288 113.664C315.368 111.92 313.608 107.336 315.344 103.416C317.096 99.512 321.68 97.744 325.592 99.48C387.376 126.984 427.304 188.44 427.304 256.056C427.304 279.256 422.752 301.744 413.768 322.92C412.504 325.88 409.632 327.656 406.616 327.656Z" fill="#A6231F"/>
<path d="M117.095 350.176C114.503 350.176 111.975 348.88 110.503 346.512C93.6231 319.408 84.7031 288.128 84.7031 256.056C84.7031 187.944 125.039 126.304 187.463 99.016C191.391 97.296 195.967 99.096 197.679 103.024C199.399 106.952 197.607 111.528 193.679 113.248C136.911 138.056 100.231 194.12 100.231 256.064C100.231 285.232 108.343 313.68 123.679 338.32C125.943 341.96 124.831 346.744 121.191 349.008C119.911 349.8 118.495 350.176 117.095 350.176Z" fill="#A6231F"/>
<path d="M256 427.36C238.784 427.36 221.768 424.808 205.44 419.776C201.344 418.512 199.048 414.168 200.312 410.072C201.576 405.976 205.912 403.688 210.024 404.944C243.528 415.28 280.464 413.904 313.056 401.064C317.016 399.488 321.544 401.456 323.12 405.448C324.688 409.432 322.728 413.944 318.736 415.512C298.76 423.376 277.648 427.36 256 427.36Z" fill="#A6231F"/>
</svg>
