<svg width="250" height="250" viewBox="0 0 250 250" fill="none" xmlns="http://www.w3.org/2000/svg">
<path d="M224.134 187.566C219.485 178.605 208.41 175.096 199.448 179.745L197.434 180.79C197.265 179.568 196.899 178.37 196.315 177.245C194.071 172.918 190.261 169.719 185.587 168.239C180.914 166.758 175.957 167.178 171.63 169.424L153.707 178.722C151.287 172.801 145.04 169.465 136.975 169.938L85.4502 172.962L38.5747 191.73L24.6318 191.73V250H39.9009L79.395 236.213L143.735 241.654L178.807 223.459L175.434 216.958L142.242 234.177L78.4556 228.783L38.6602 242.676H31.9565V199.054L39.9868 199.054L87.0683 180.205L137.405 177.25C139.343 177.133 145.781 177.157 147.187 182.219C148.214 185.917 145.993 189.832 142.114 191.221L94.3462 200.725L95.7754 207.908L114.049 204.273L146.148 215.649L202.821 186.247C208.198 183.458 214.843 185.563 217.632 190.94C218.079 191.8 218.161 192.791 217.864 193.73C217.566 194.668 216.929 195.43 216.068 195.877L181.936 213.584L185.31 220.085L219.441 202.377C222.038 201.03 223.957 198.745 224.846 195.941C225.735 193.138 225.482 190.164 224.134 187.566ZM145.598 207.683L128.091 201.479L143.785 198.356L144.007 198.312L144.223 198.24C149.775 196.399 153.612 191.788 154.543 186.54L175.003 175.925C180.38 173.136 187.024 175.24 189.814 180.618C190.261 181.479 190.343 182.469 190.046 183.407C189.749 184.345 189.111 185.107 188.25 185.554L145.598 207.683Z" fill="#A6231F"/>
<path d="M135.984 153.81C178.389 153.81 212.888 119.311 212.888 76.9048C212.888 34.499 178.389 0 135.984 0C116.92 0 98.6308 7.02881 84.4858 19.791L89.3926 25.229C102.189 13.6826 118.736 7.32422 135.984 7.32422C174.351 7.32422 205.564 38.5381 205.564 76.9048C205.564 97.8682 196.245 116.696 181.532 129.463C178.153 125.613 172.934 122.593 165.936 120.463L151.44 116.054L150.736 109.022C155.776 105.679 159.623 100.679 161.493 94.8037H167.958C173.163 94.8037 177.396 90.5698 177.396 85.3662V78.042C177.396 73.0288 173.464 68.9277 168.523 68.6328V63.6035C168.523 45.6611 153.926 31.064 135.984 31.064C118.041 31.064 103.444 45.6611 103.444 63.6035V68.6333C98.5039 68.9282 94.5718 73.0293 94.5718 78.0425V85.3667C94.5718 90.5703 98.8057 94.8042 104.01 94.8042H110.476C112.346 100.68 116.193 105.68 121.232 109.022L120.528 116.054L106.032 120.464C99.0923 122.575 93.8994 125.619 90.5156 129.532C75.7573 116.764 66.4048 97.9063 66.4048 76.9053C66.4048 59.6572 72.7632 43.1109 84.3096 30.314L78.8716 25.4072C66.1089 39.5527 59.0806 57.8413 59.0806 76.9053C59.0796 119.311 93.5786 153.81 135.984 153.81ZM170.072 78.042V85.3662C170.072 86.5117 169.104 87.4795 167.958 87.4795H162.728C162.736 87.2217 162.748 86.9654 162.748 86.7056V75.9287H167.958C169.104 75.9287 170.072 76.8965 170.072 78.042ZM135.984 38.3882C149.888 38.3882 161.199 49.6997 161.199 63.6035V68.6045H110.769V63.6035C110.769 49.6997 122.08 38.3882 135.984 38.3882ZM104.009 87.4795C102.864 87.4795 101.895 86.5117 101.895 85.3662V78.042C101.895 76.8965 102.863 75.9287 104.009 75.9287H109.22V86.7056C109.22 86.9649 109.232 87.2217 109.239 87.4795H104.009ZM116.544 86.7056V75.9287H155.424V86.7056C155.424 97.4248 146.703 106.145 135.984 106.145C125.266 106.145 116.544 97.4248 116.544 86.7056ZM135.984 113.47C138.668 113.47 141.26 113.068 143.707 112.329L144.37 118.953C144.286 122.137 140.483 124.808 135.984 124.808C131.484 124.808 127.682 122.137 127.599 118.953L128.262 112.329C130.708 113.068 133.3 113.47 135.984 113.47ZM108.164 127.471L121.258 123.488C123.49 128.531 129.248 132.132 135.984 132.132C142.721 132.132 148.478 128.531 150.71 123.488L163.805 127.472C169.279 129.137 173.274 131.318 175.745 133.973C164.467 141.855 150.757 146.486 135.984 146.486C121.251 146.486 107.575 141.879 96.314 134.035C99.3779 130.71 104.249 128.662 108.164 127.471Z" fill="#A6231F"/>
<path d="M150.632 18.3105H157.957V25.6348H150.632V18.3105Z" fill="#A6231F"/>
<path d="M165.28 25.6348H172.604V32.959H165.28V25.6348Z" fill="#A6231F"/>
</svg>
