<svg width="250" height="250" viewBox="0 0 250 250" fill="none" xmlns="http://www.w3.org/2000/svg">
<path d="M54.6875 164.063H93.75C94.786 164.063 95.7796 163.651 96.5121 162.918C97.2447 162.186 97.6562 161.192 97.6562 160.156V136.719C97.6563 136.096 97.5072 135.481 97.2214 134.927C96.9356 134.373 96.5214 133.896 96.0133 133.535C95.5053 133.174 94.9182 132.94 94.3012 132.852C93.6841 132.764 93.055 132.825 92.4664 133.03L84.0093 135.971L77.4061 126.648C77.0398 126.131 76.5532 125.711 75.9883 125.423C75.4233 125.136 74.797 124.991 74.1633 125C73.5297 125.009 72.9078 125.172 72.3512 125.475C71.7946 125.778 71.3202 126.212 70.9688 126.74L64.81 135.975L55.9236 133.013C55.3364 132.817 54.7111 132.764 54.0993 132.858C53.4875 132.951 52.9066 133.189 52.4045 133.551C51.9024 133.912 51.4935 134.388 51.2112 134.939C50.929 135.49 50.7816 136.1 50.7812 136.719V160.156C50.7812 161.192 51.1928 162.186 51.9254 162.918C52.6579 163.651 53.6515 164.063 54.6875 164.063ZM58.5938 142.14L65.1684 144.331C65.9815 144.602 66.861 144.598 67.6716 144.32C68.4823 144.042 69.179 143.505 69.6545 142.792L74.3161 135.801L79.3324 142.883C79.8228 143.573 80.5235 144.085 81.3296 144.343C82.1356 144.601 83.0035 144.591 83.8032 144.314L89.8438 142.214V156.25H58.5938V142.14Z" fill="#A6231F"/>
<path d="M105.795 171.875H42.9687C41.9327 171.875 40.9392 172.287 40.2066 173.019C39.4741 173.752 39.0625 174.745 39.0625 175.781C39.0625 176.817 39.4741 177.811 40.2066 178.543C40.9392 179.276 41.9327 179.688 42.9687 179.688H105.795C106.831 179.688 107.824 179.276 108.557 178.543C109.29 177.811 109.701 176.817 109.701 175.781C109.701 174.745 109.29 173.752 108.557 173.019C107.824 172.287 106.831 171.875 105.795 171.875Z" fill="#A6231F"/>
<path d="M105.795 187.5H42.9687C41.9327 187.5 40.9392 187.912 40.2066 188.644C39.4741 189.377 39.0625 190.37 39.0625 191.406C39.0625 192.442 39.4741 193.436 40.2066 194.168C40.9392 194.901 41.9327 195.312 42.9687 195.312H105.795C106.831 195.312 107.824 194.901 108.557 194.168C109.29 193.436 109.701 192.442 109.701 191.406C109.701 190.37 109.29 189.377 108.557 188.644C107.824 187.912 106.831 187.5 105.795 187.5Z" fill="#A6231F"/>
<path d="M105.795 203.125H42.9687C41.9327 203.125 40.9392 203.537 40.2066 204.269C39.4741 205.002 39.0625 205.995 39.0625 207.031C39.0625 208.067 39.4741 209.061 40.2066 209.793C40.9392 210.526 41.9327 210.938 42.9687 210.938H105.795C106.831 210.938 107.824 210.526 108.557 209.793C109.29 209.061 109.701 208.067 109.701 207.031C109.701 205.995 109.29 205.002 108.557 204.269C107.824 203.537 106.831 203.125 105.795 203.125Z" fill="#A6231F"/>
<path d="M172.594 126.648L165.991 135.971L157.534 133.03C156.945 132.825 156.316 132.764 155.699 132.852C155.082 132.939 154.495 133.174 153.987 133.535C153.479 133.896 153.064 134.373 152.779 134.927C152.493 135.481 152.344 136.095 152.344 136.719V160.156C152.344 161.192 152.755 162.186 153.488 162.918C154.22 163.651 155.214 164.062 156.25 164.062H195.312C196.349 164.062 197.342 163.651 198.075 162.918C198.807 162.186 199.219 161.192 199.219 160.156V136.719C199.218 136.1 199.071 135.49 198.789 134.939C198.507 134.388 198.098 133.912 197.595 133.55C197.093 133.189 196.513 132.951 195.901 132.858C195.289 132.764 194.664 132.817 194.077 133.013L185.19 135.975L179.031 126.739C178.68 126.212 178.205 125.779 177.648 125.476C177.092 125.173 176.47 125.009 175.837 125C175.202 124.984 174.573 125.127 174.007 125.414C173.441 125.702 172.956 126.126 172.594 126.648ZM180.346 142.792C180.821 143.505 181.518 144.042 182.328 144.32C183.139 144.598 184.019 144.602 184.832 144.331L191.406 142.139V156.25H160.156V142.214L166.197 144.314C166.997 144.59 167.864 144.599 168.67 144.342C169.476 144.084 170.177 143.572 170.668 142.883L175.684 135.801L180.346 142.792Z" fill="#A6231F"/>
<path d="M140.299 175.781C140.299 176.817 140.71 177.811 141.443 178.543C142.176 179.276 143.169 179.688 144.205 179.688H207.031C208.067 179.688 209.061 179.276 209.793 178.543C210.526 177.811 210.937 176.817 210.937 175.781C210.937 174.745 210.526 173.752 209.793 173.019C209.061 172.287 208.067 171.875 207.031 171.875H144.205C143.169 171.875 142.176 172.287 141.443 173.019C140.71 173.752 140.299 174.745 140.299 175.781Z" fill="#A6231F"/>
<path d="M207.031 187.5H144.205C143.169 187.5 142.176 187.912 141.443 188.644C140.71 189.377 140.299 190.37 140.299 191.406C140.299 192.442 140.71 193.436 141.443 194.168C142.176 194.901 143.169 195.312 144.205 195.312H207.031C208.067 195.312 209.061 194.901 209.793 194.168C210.526 193.436 210.937 192.442 210.937 191.406C210.937 190.37 210.526 189.377 209.793 188.644C209.061 187.912 208.067 187.5 207.031 187.5Z" fill="#A6231F"/>
<path d="M207.031 203.125H144.205C143.169 203.125 142.176 203.537 141.443 204.269C140.71 205.002 140.299 205.995 140.299 207.031C140.299 208.067 140.71 209.061 141.443 209.793C142.176 210.526 143.169 210.938 144.205 210.938H207.031C208.067 210.938 209.061 210.526 209.793 209.793C210.526 209.061 210.937 208.067 210.937 207.031C210.937 205.995 210.526 205.002 209.793 204.269C209.061 203.537 208.067 203.125 207.031 203.125Z" fill="#A6231F"/>
<path d="M222.656 70.3125H179.93L194.382 53.3104C194.983 52.6048 195.313 51.7082 195.313 50.7812C195.313 49.8543 194.983 48.9577 194.382 48.2521L161.179 9.18961C160.812 8.75799 160.356 8.41126 159.842 8.17346C159.329 7.93566 158.769 7.81249 158.203 7.8125H91.7969C91.2307 7.81249 90.6713 7.93566 90.1575 8.17346C89.6437 8.41126 89.1878 8.75799 88.8214 9.18961L55.6183 48.2521C55.0172 48.9577 54.687 49.8543 54.687 50.7812C54.687 51.7082 55.0172 52.6048 55.6183 53.3104L70.07 70.3125H27.3438C26.3077 70.3125 25.3142 70.724 24.5816 71.4566C23.8491 72.1892 23.4375 73.1827 23.4375 74.2188V238.281C23.4375 239.317 23.8491 240.311 24.5816 241.043C25.3142 241.776 26.3077 242.188 27.3438 242.188H222.656C223.692 242.188 224.686 241.776 225.418 241.043C226.151 240.311 226.562 239.317 226.562 238.281V74.2188C226.562 73.1827 226.151 72.1892 225.418 71.4566C224.686 70.724 223.692 70.3125 222.656 70.3125ZM135.039 111.065L153.759 54.6684H182.975L135.039 111.065ZM124.932 116.712L103.569 54.6684H145.528L124.932 116.712ZM156.397 15.625L182.943 46.8559H153.034L132.285 15.625H156.397ZM143.655 46.8559H105.529L124.941 18.688L143.655 46.8559ZM93.6031 15.625H117.565L96.0419 46.8559H67.0571L93.6031 15.625ZM95.3073 54.6684L114.566 110.6L67.0247 54.6684H95.3073ZM218.75 234.375H31.25V78.125H76.7107L122.025 131.435C122.391 131.868 122.846 132.215 123.36 132.453C123.874 132.691 124.434 132.814 125 132.814C125.566 132.814 126.126 132.691 126.64 132.453C127.154 132.215 127.609 131.868 127.975 131.435L173.289 78.125H218.75V234.375Z" fill="#A6231F"/>
</svg>
