<svg width="250" height="250" viewBox="0 0 250 250" fill="none" xmlns="http://www.w3.org/2000/svg">
<path d="M158.535 189.338C160.178 190.041 161.91 190.394 163.644 190.394C165.281 190.394 166.919 190.08 168.483 189.452C171.704 188.159 174.231 185.687 175.6 182.494C176.97 179.296 177.012 175.759 175.72 172.534C175.719 172.531 175.718 172.529 175.717 172.526C175.202 171.25 173.593 169.144 168.325 162.561C166.533 160.322 164.68 158.006 164 157.042L155.607 145.199C155.455 144.983 155.278 144.784 155.082 144.606C153.677 143.325 151.776 142.949 150.12 143.625C148.456 144.304 147.354 145.905 147.245 147.801C147.23 148.05 147.241 148.3 147.277 148.547L149.371 162.895C149.536 164.044 149.776 166.8 150.031 169.718C150.775 178.247 151.069 180.919 151.581 182.206C152.872 185.437 155.341 187.97 158.535 189.338ZM157.984 161.305C158.788 162.444 160.542 164.636 162.573 167.174C164.71 169.845 168.256 174.276 168.928 175.405C169.436 176.764 169.401 178.244 168.826 179.586C168.232 180.972 167.137 182.043 165.74 182.604C164.345 183.165 162.816 183.146 161.435 182.556C160.091 181.98 159.043 180.928 158.474 179.59C158.177 178.295 157.675 172.543 157.373 169.078C157.098 165.922 156.86 163.197 156.664 161.838L156.225 158.823L157.984 161.305Z" fill="#A6231F"/>
<path d="M210.931 120.259C216.291 119.059 221.317 116.802 225.907 113.531L226.246 113.29C229.459 110.998 230.353 109.66 229.685 105.754C229.616 105.356 229.533 104.874 229.454 104.294L225.474 76.0167L220.949 43.8741V43.8497L216.802 14.378C216.777 14.2105 216.757 14.0582 216.738 13.9107C216.581 12.7007 216.29 10.4532 214.02 9.48394C211.633 8.46587 209.53 10.0298 208.527 10.7725C203.84 14.2203 198.617 16.3697 192.996 17.1568C186.648 18.0518 180.113 17.1026 174.114 14.417C166.837 11.1514 158.907 10.0049 151.193 11.1021C143.489 12.1695 136.178 15.46 130.056 20.6143C125.024 24.8638 119.01 27.584 112.657 28.4742C106.333 29.3741 99.8037 28.4249 93.7749 25.7295C86.4785 22.4683 78.5532 21.3228 70.854 22.4195C69.3457 22.6309 66.7954 23.0787 64 23.6343C63.9605 22.9898 63.9019 22.3458 63.8086 21.7012C61.8779 7.9395 49.1177 -1.68598 35.3604 0.247122C28.688 1.18658 22.7866 4.66363 18.7383 10.0494C14.6943 15.4253 12.9849 22.0606 13.9234 28.7251C14.8618 35.3995 18.3355 41.3067 23.7158 45.3594C24.5562 45.9927 25.4282 46.5679 26.3252 47.0855L32.9439 93.8531L37.1748 123.981C37.4336 125.824 39.0117 127.157 40.8193 127.157C40.9902 127.157 41.1631 127.145 41.3369 127.12C43.3525 126.837 44.7564 124.971 44.4732 122.954L40.2417 92.8218L34.1812 49.9952C35.6963 50.2803 37.2407 50.4297 38.8003 50.4297C39.9844 50.4297 41.1831 50.3462 42.3774 50.1788C45.1524 49.7876 47.791 48.9478 50.2261 47.7247L76.1543 232.134C76.4536 234.269 75.8989 236.4 74.5918 238.138C73.2852 239.875 71.3921 240.997 69.2617 241.296C64.833 241.913 60.7285 238.823 60.1064 234.398L49.3887 157.963L47.0308 139.817C46.7681 137.797 44.9194 136.37 42.9014 136.635C40.8828 136.898 39.46 138.749 39.7222 140.77L42.0855 158.953L52.8086 235.425C53.8945 243.151 60.5381 248.754 68.124 248.754C68.8379 248.754 69.5601 248.705 70.2866 248.603C74.3682 248.029 77.9878 245.889 80.48 242.576C82.9707 239.265 84.0264 235.192 83.4536 231.109L77.0718 185.47L69.6426 132.727C74.3438 129.201 79.7671 126.928 85.4536 126.13C91.7725 125.235 98.3022 126.185 104.341 128.875C104.621 129.003 104.906 129.126 105.191 129.244C94.7598 142.002 88.4951 158.297 88.4951 176.029C88.4951 178.07 90.1411 179.718 92.1802 179.718C94.2144 179.718 95.8652 178.07 95.8652 176.029C95.8652 159.006 102.282 143.449 112.826 131.659C114.899 129.337 117.135 127.158 119.518 125.147C125.871 119.771 133.241 115.565 141.294 112.86C148.091 110.583 155.246 109.427 162.412 109.427C176.44 109.427 189.47 113.794 200.216 121.236C217.57 133.272 228.959 153.345 228.959 176.029C228.959 212.751 199.105 242.621 162.412 242.621C131.969 242.621 105.451 222.032 97.9238 192.555C97.4229 190.583 95.4131 189.387 93.4429 189.894C91.4727 190.401 90.2837 192.407 90.7847 194.38C99.1411 227.129 128.597 250 162.411 250C203.167 250 236.328 216.82 236.328 176.03C236.328 153.803 226.481 133.835 210.931 120.259ZM53.1074 35.941C48.6841 41.8199 40.833 44.4263 33.77 42.3121C31.7632 41.7115 29.8218 40.7247 28.1475 39.4624C24.3447 36.5953 21.8877 32.419 21.2246 27.6924C20.5562 22.9805 21.7651 18.2881 24.6245 14.4864C27.4893 10.6792 31.6655 8.21538 36.3823 7.5562C37.2227 7.43804 38.0527 7.37896 38.8735 7.37896C47.6143 7.37896 55.2646 13.8321 56.5127 22.7295C57.1758 27.4463 55.9722 32.1338 53.1074 35.941ZM194.024 24.4659C199.62 23.6788 205.064 21.6968 209.963 18.6866L213.338 42.6841C208.631 46.2256 203.202 48.4981 197.512 49.2847C191.812 50.0962 185.966 49.4126 180.478 47.3077L177.102 23.315C182.629 24.8545 188.378 25.2579 194.024 24.4659ZM152.221 18.4112C157.92 17.5997 163.762 18.2833 169.25 20.3882L172.621 44.3858C167.094 42.8414 161.34 42.438 155.694 43.23C150.063 44.022 144.649 45.9991 139.755 49.0191L136.375 25.0118C141.087 21.4751 146.521 19.1983 152.221 18.4112ZM113.689 35.7784C119.33 34.9864 124.75 33.0093 129.633 29.9991L133.009 54.0015C128.316 57.5381 122.887 59.8155 117.187 60.6119C111.483 61.4185 105.631 60.7251 100.153 58.6348L96.7725 34.6324C102.31 36.1768 108.064 36.5801 113.689 35.7784ZM57.0088 42.7134C57.043 42.6788 57.0679 42.6446 57.0972 42.6104C57.7656 41.9068 58.4043 41.1641 58.9985 40.3775C61.062 37.628 62.5166 34.5489 63.3223 31.3077C66.752 30.5796 70.1079 29.9747 71.8862 29.7237C77.5708 28.917 83.418 29.6055 88.9209 31.7061L92.2964 55.7037C86.769 54.1592 81.02 53.7608 75.3843 54.5625C69.7583 55.3399 64.3535 57.3023 59.4697 60.3077L57.0088 42.7134ZM60.6104 68.4424C65.3027 64.9205 70.7222 62.6534 76.4116 61.8663C82.1113 61.0547 87.9531 61.7432 93.4414 63.8433L96.8169 87.8409C91.2944 86.3013 85.5454 85.898 79.8999 86.69C74.269 87.4771 68.8594 89.4493 63.9707 92.4595L60.6104 68.4424ZM90.125 118.424C88.2188 118.424 86.312 118.557 84.4253 118.828C78.7939 119.618 73.3828 121.586 68.4951 124.593L65.1143 100.591C69.8154 97.0665 75.2383 94.7901 80.9268 93.9937C86.6314 93.1919 92.4829 93.8804 97.9614 95.9761L101.342 119.979C97.6621 118.951 93.8887 118.424 90.125 118.424ZM104.673 90.7627L101.298 66.7701C106.82 68.3096 112.569 68.7129 118.21 67.9209C123.855 67.129 129.27 65.1519 134.159 62.1416L137.534 86.1392C132.837 89.6807 127.408 91.9527 121.703 92.7447C116.004 93.5513 110.157 92.8677 104.673 90.7627ZM110.53 123.377C110.083 123.23 109.636 123.067 109.194 122.9L105.818 98.9029C111.346 100.452 117.095 100.851 122.726 100.049C128.366 99.2671 133.786 97.2945 138.679 94.2793L140.251 105.444C128.936 109.01 118.78 115.237 110.53 123.377ZM140.9 57.1543C145.602 53.6177 151.031 51.3355 156.721 50.5391C162.426 49.7373 168.277 50.4258 173.766 52.5162L177.141 76.5235C171.599 74.9742 165.845 74.5708 160.219 75.3726C154.583 76.1646 149.169 78.1416 144.275 81.1568L140.9 57.1543ZM162.411 102.051C157.282 102.051 152.27 102.577 147.43 103.581L145.42 89.2974C150.127 85.7559 155.557 83.4786 161.251 82.6773C166.936 81.8706 172.783 82.5591 178.286 84.6592L181.062 104.437C175.102 102.882 168.853 102.051 162.411 102.051ZM181.622 55.4478C187.149 56.9922 192.898 57.3956 198.534 56.5938C204.165 55.8116 209.584 53.8394 214.483 50.8194L217.863 74.8218C213.137 78.3682 207.702 80.6407 202.022 81.4273C196.343 82.2339 190.496 81.5503 184.993 79.4502L181.622 55.4478ZM206.543 113.57C205.202 113.762 203.851 113.87 202.489 113.895C198.225 111.13 193.665 108.794 188.859 106.95L186.137 87.5855C191.675 89.1299 197.423 89.5332 203.044 88.7315C208.67 87.9541 214.095 85.982 219.008 82.9571L222.153 105.327C222.246 105.971 222.334 106.507 222.413 106.96C222.266 107.068 222.113 107.176 221.966 107.279L221.627 107.521C217.067 110.771 211.997 112.803 206.543 113.57Z" fill="#A6231F"/>
<path d="M162.409 231.646C193.056 231.646 217.988 206.698 217.988 176.032C217.988 145.359 193.056 120.404 162.409 120.404C131.763 120.404 106.83 145.359 106.83 176.032C106.83 206.698 131.763 231.646 162.409 231.646ZM162.409 224.268C137.067 224.268 116.229 204.602 114.34 179.721H117.298C119.334 179.721 120.983 178.069 120.983 176.032C120.983 173.994 119.334 172.343 117.298 172.343H114.34C115.091 162.441 118.844 153.366 124.685 146.026L126.646 147.995C127.366 148.718 128.311 149.079 129.256 149.079C130.197 149.079 131.139 148.72 131.858 148.003C133.299 146.564 133.302 144.228 131.865 142.786L129.705 140.617C137.459 133.438 147.566 128.769 158.724 127.921V130.868C158.724 132.905 160.374 134.557 162.409 134.557C164.444 134.557 166.094 132.905 166.094 130.868V127.921C177.251 128.769 187.355 133.436 195.11 140.613L192.943 142.782C191.504 144.222 191.503 146.558 192.943 147.999C193.663 148.719 194.605 149.079 195.549 149.079C196.492 149.079 197.435 148.719 198.154 147.999L200.13 146.022C205.973 153.363 209.727 162.439 210.479 172.343H207.52C205.485 172.343 203.835 173.995 203.835 176.032C203.835 178.07 205.485 179.721 207.52 179.721H210.479C208.589 204.602 187.751 224.268 162.409 224.268Z" fill="#A6231F"/>
<path d="M173.132 200.582H155.501C153.466 200.582 151.816 202.233 151.816 204.271C151.816 206.309 153.466 207.96 155.501 207.96H173.132C175.167 207.96 176.817 206.309 176.817 204.271C176.817 202.233 175.167 200.582 173.132 200.582Z" fill="#A6231F"/>
</svg>
