<svg width="512" height="192" viewBox="0 0 512 192" fill="none" xmlns="http://www.w3.org/2000/svg">
<path d="M98.0251 156.942C99.9441 156.942 101.864 156.21 103.328 154.746L114.664 143.409C117.593 140.48 117.593 135.732 114.664 132.803C111.735 129.874 106.986 129.874 104.058 132.803L92.7221 144.14C89.7931 147.069 89.7931 151.817 92.7221 154.746C94.1871 156.21 96.1061 156.942 98.0251 156.942Z" fill="#B64B47"/>
<path d="M416.687 154.745C418.151 156.209 420.071 156.941 421.99 156.941C423.909 156.941 425.829 156.209 427.293 154.745C430.222 151.816 430.222 147.067 427.293 144.139L415.957 132.802C413.028 129.873 408.279 129.873 405.351 132.802C402.422 135.731 402.422 140.48 405.351 143.408L416.687 154.745Z" fill="#B64B47"/>
<path d="M489.383 77.863C447.023 58.191 383.305 56.309 370.439 56.132L309.677 17.465C291.722 6.039 270.984 0 249.703 0H178.284C159.794 0 141.279 4.371 124.741 12.64L86.698 31.661C75.237 37.392 62.978 41.103 50.262 42.693L20.614 46.399C8.862 47.867 0 57.906 0 69.749V117.618C0 131.629 9.409 144.103 22.881 147.952L58.312 158.075C64.398 177.344 82.438 191.354 103.693 191.354C121.372 191.354 136.818 181.655 145.021 167.305H374.994C383.197 181.655 398.643 191.354 416.322 191.354C442.558 191.354 463.903 170.009 463.903 143.773C463.903 117.537 442.558 96.192 416.322 96.192C390.086 96.192 368.741 117.536 368.741 143.773C368.741 146.687 369.018 149.535 369.522 152.305H150.492C150.996 149.534 151.273 146.686 151.273 143.773C151.273 117.537 129.928 96.192 103.692 96.192C78.098 96.192 57.169 116.508 56.16 141.859L27.001 133.528C19.936 131.51 15 124.968 15 117.618V95.161H23.532C27.674 95.161 31.032 91.803 31.032 87.661C31.032 83.519 27.674 80.161 23.532 80.161H15V69.749C15 65.455 18.213 61.815 22.474 61.283L52.122 57.577C66.53 55.776 80.419 51.57 93.406 45.077L96.827 43.367L110.7 57.176C119.687 66.163 131.636 71.113 144.345 71.113H159.807C163.949 71.113 167.307 67.755 167.307 63.613C167.307 59.471 163.949 56.113 159.807 56.113H144.345C143.034 56.113 141.738 56.027 140.456 55.875L148.743 19.271C158.325 16.459 168.309 14.999 178.285 14.999H216.437V56.112H191.873C187.731 56.112 184.373 59.47 184.373 63.612C184.373 67.754 187.731 71.112 191.873 71.112H368.226C368.937 71.112 439.792 71.37 483.066 91.466C485.605 92.645 487.867 94.26 489.8 96.192H480.453C476.311 96.192 472.953 99.55 472.953 103.692C472.953 107.834 476.311 111.192 480.453 111.192H496.865C496.946 112.004 497.001 112.82 497.001 113.648V140.26C497.001 147.69 493.731 152.305 488.469 152.305C484.327 152.305 480.969 155.663 480.969 159.805C480.969 163.947 484.327 167.305 488.469 167.305C495.111 167.305 501.146 164.572 505.464 159.609C509.74 154.692 512.001 148.002 512.001 140.26V113.648C512 98.29 503.122 84.243 489.383 77.863ZM416.322 111.193C434.287 111.193 448.903 125.809 448.903 143.774C448.903 161.739 434.287 176.355 416.322 176.355C398.357 176.355 383.741 161.739 383.741 143.774C383.741 125.809 398.357 111.193 416.322 111.193ZM103.693 111.193C121.658 111.193 136.274 125.809 136.274 143.774C136.274 161.739 121.658 176.355 103.693 176.355C85.728 176.355 71.112 161.739 71.112 143.774C71.112 125.809 85.729 111.193 103.693 111.193ZM126.259 50.644C124.498 49.464 122.839 48.103 121.306 46.57L111.011 36.275L131.449 26.056C131.589 25.986 131.732 25.921 131.872 25.852L126.259 50.644ZM231.436 14.999H249.703C268.126 14.999 286.08 20.228 301.624 30.119L342.471 56.113H231.436V14.999Z" fill="#B64B47"/>
<path d="M175.84 120.241C171.698 120.241 168.34 123.599 168.34 127.741C168.34 131.883 171.698 135.241 175.84 135.241H344.178C348.32 135.241 351.678 131.883 351.678 127.741C351.678 123.599 348.32 120.241 344.178 120.241H175.84Z" fill="#B64B47"/>
</svg>
