<svg height="512" viewBox="0 0 512 512" width="512" xmlns="http://www.w3.org/2000/svg"><g id="Layer_23" data-name="Layer 23"><path d="m364.5 496h-352v-480h256l96 96z" fill="#e2e7f6"/><path d="m36.5 16v456h328v-360l-96-96z" fill="#f2f2f2"/><circle cx="124.5" cy="128" fill="#6bc13b" r="80"/><path d="m124.5 48a80.1 80.1 0 0 0 -13.119 1.167 79.864 79.864 0 0 0 50.237 149.666 79.978 79.978 0 0 0 -37.118-150.833z" fill="#7bdf45"/><path d="m108.5 168a7.971 7.971 0 0 1 -5.656-2.344l-24-24 11.312-11.312 18.344 18.344 50.344-50.344 11.312 11.312-56 56a7.971 7.971 0 0 1 -5.656 2.344z" fill="#fff"/><path d="m44.5 248h80v80h-80z" fill="#559b2d"/><path d="m84.5 304a7.971 7.971 0 0 1 -5.656-2.344l-16-16 11.312-11.312 10.344 10.344 58.344-58.344 11.312 11.312-64 64a7.971 7.971 0 0 1 -5.656 2.344z" fill="#474747"/><path d="m44.5 376h80v80h-80z" fill="#559b2d"/><path d="m84.5 432a7.971 7.971 0 0 1 -5.656-2.344l-16-16 11.312-11.312 10.344 10.344 58.344-58.344 11.312 11.312-64 64a7.971 7.971 0 0 1 -5.656 2.344z" fill="#474747"/><g fill="#686868"><path d="m148.5 424h152v16h-152z"/><path d="m148.5 392h104v16h-104z"/><path d="m148.5 296h64v16h-64z"/><path d="m148.5 264h72v16h-72z"/></g><path d="m268.5 16v96h96" fill="#c8cded"/><circle cx="348.5" cy="312" fill="#4fb5dc" r="144"/><circle cx="348.5" cy="312" fill="#f2f2f2" r="112"/><path d="m348.5 200a111.5 111.5 0 0 0 -70.774 25.226 111.972 111.972 0 0 0 157.548 157.548 111.972 111.972 0 0 0 -86.774-182.774z" fill="#fff"/><path d="m340.5 224h16v24h-16z" fill="#2458ad"/><path d="m340.5 376h16v24h-16z" fill="#2458ad"/><path d="m412.5 304h24v16h-24z" fill="#2458ad"/><path d="m260.5 304h24v16h-24z" fill="#2458ad"/><path d="m396.5 320h-48a8 8 0 0 1 -8-8v-32h16v24h40z" fill="#474747"/></g></svg>