<svg id="Layer_1" height="512" viewBox="0 0 512 512" width="512" xmlns="http://www.w3.org/2000/svg" data-name="Layer 1"><path d="m193.2 372.149a7.172 7.172 0 1 1 10.05-10.229l53.6 52.779a28.406 28.406 0 0 0 2.827 2.448 24.381 24.381 0 0 0 16.758 5.013 25.652 25.652 0 0 0 16.087-7.752 31.03 31.03 0 0 0 2.594-3.06 36.167 36.167 0 0 0 6.849-24.073c-.554-8.51-3.847-16.7-9.763-22.5l-89.39-88.075a48.765 48.765 0 0 0 -21.654-12.619c-8.014-2.216-16.7-2.507-25.85-1.632l-148.108 13.788v135.285h112.727a7.149 7.149 0 0 1 5.771 2.915l56.247 62.892c6.791 7.578 14.543 12.882 22.82 15.767a48.578 48.578 0 0 0 26.317 1.4l224.641-47.942v-.029c1.661-.349 3.964-.787 6.295-1.224 12.94-2.448 26.987-5.129 26.987-23.227a23.184 23.184 0 0 0 -5.508-15.359 16.225 16.225 0 0 0 -12.182-5.887h-.115l-158.572 8.51a46.131 46.131 0 0 1 -9.88 15.125 39.889 39.889 0 0 1 -25.182 12.037 38.777 38.777 0 0 1 -26.55-7.869 37.546 37.546 0 0 1 -4.225-3.7z" fill="#fbbd80"/><path d="m11.628 229.169h52.926a11.68 11.68 0 0 1 11.628 11.631v203.422a11.68 11.68 0 0 1 -11.628 11.629h-52.926a11.662 11.662 0 0 1 -11.628-11.629v-203.422a11.661 11.661 0 0 1 11.628-11.629z" fill="#968c96" fill-rule="evenodd"/><path d="m30.893 265.716a7.2 7.2 0 1 1 14.4 0v.349a7.2 7.2 0 1 1 -14.4 0z" fill="#eaf6ff"/><path d="m266.667 26.969a15.59 15.59 0 0 1 15.562 15.531v24.629h24.6a15.6 15.6 0 0 1 15.561 15.563 15.6 15.6 0 0 1 -15.563 15.563h-24.6v24.626a15.591 15.591 0 0 1 -15.562 15.534 15.591 15.591 0 0 1 -15.565-15.534v-24.626h-24.623a15.617 15.617 0 0 1 -15.563-15.563 15.617 15.617 0 0 1 15.563-15.563h24.623v-24.629a15.59 15.59 0 0 1 15.563-15.533z" fill="#25c73b" fill-rule="evenodd"/><path d="m172.619 108.106a15.6 15.6 0 0 1 15.563 15.562v24.6h24.627a15.6 15.6 0 0 1 15.563 15.562 15.6 15.6 0 0 1 -15.563 15.564h-24.627v24.626a15.616 15.616 0 0 1 -15.563 15.563 15.61 15.61 0 0 1 -15.533-15.563v-24.628h-24.627a15.6 15.6 0 0 1 -15.559-15.564 15.6 15.6 0 0 1 15.563-15.562h24.627v-24.6a15.59 15.59 0 0 1 15.533-15.562z" fill="#25c73b" fill-rule="evenodd"/><path d="m80.874 16.331a15.616 15.616 0 0 1 15.563 15.563v24.627h24.627a15.59 15.59 0 0 1 15.536 15.563 15.609 15.609 0 0 1 -15.533 15.562h-24.63v24.6a15.6 15.6 0 0 1 -15.563 15.563 15.6 15.6 0 0 1 -15.563-15.563v-24.6h-24.626a15.61 15.61 0 0 1 -15.534-15.562 15.591 15.591 0 0 1 15.534-15.563h24.626v-24.627a15.617 15.617 0 0 1 15.563-15.563z" fill="#25c73b" fill-rule="evenodd"/><path d="m372.954 130.43a28.126 28.126 0 0 1 41.735 0 14.52 14.52 0 0 0 15.5 4.167 28.1 28.1 0 0 1 36.138 20.838 14.486 14.486 0 0 0 11.373 11.365 28.092 28.092 0 0 1 20.867 36.139 14.5 14.5 0 0 0 4.167 15.533 28.125 28.125 0 0 1 0 41.734 14.5 14.5 0 0 0 -4.167 15.534 28.085 28.085 0 0 1 -32.117 36.226 28.144 28.144 0 0 1 -36.255 32.146 14.508 14.508 0 0 0 -15.5 4.138 28.067 28.067 0 0 1 -41.735 0 14.54 14.54 0 0 0 -15.533-4.138 28.143 28.143 0 0 1 -36.139-20.867 14.486 14.486 0 0 0 -11.366-11.367 28.09 28.09 0 0 1 -20.867-36.138 14.5 14.5 0 0 0 -4.167-15.534 28.125 28.125 0 0 1 0-41.734 14.5 14.5 0 0 0 4.167-15.533 28.092 28.092 0 0 1 20.861-36.139 14.484 14.484 0 0 0 11.366-11.366 28.1 28.1 0 0 1 36.139-20.834 14.553 14.553 0 0 0 15.533-4.167z" fill="#56a5e6" fill-rule="evenodd"/><path d="m393.821 315.843a76.5 76.5 0 1 0 -76.5-76.5 76.637 76.637 0 0 0 76.5 76.5z" fill="#eaf6ff" fill-rule="evenodd"/><path d="m365.523 260.411a7.2 7.2 0 0 1 14.4 0 14 14 0 0 0 6.7 11.891v-26.7a28.294 28.294 0 0 1 0-54.7v-7.81a7.2 7.2 0 1 1 14.4 0v7.81a28.334 28.334 0 0 1 21.071 27.366 7.2 7.2 0 1 1 -14.4 0 13.828 13.828 0 0 0 -4.051-9.821 14.893 14.893 0 0 0 -2.623-2.069v26.7a28.283 28.283 0 0 1 0 54.7v7.839a7.2 7.2 0 1 1 -14.4 0v-7.839a28.313 28.313 0 0 1 -21.1-27.367zm35.5 11.891a14.893 14.893 0 0 0 2.623-2.069 13.9 13.9 0 0 0 0-19.614 14.893 14.893 0 0 0 -2.623-2.069zm-14.4-65.923a13.882 13.882 0 0 0 -2.623 21.712 13.76 13.76 0 0 0 2.623 2.04z" fill="#25c73b"/><g fill-rule="evenodd"><path d="m471.2 400.827-158.572 8.51a47.159 47.159 0 0 1 -6.034 10.663c-.787 1.05-1.632 2.04-2.507 3.031l155.279-8.331h.117a16.227 16.227 0 0 1 12.182 5.887 23.24 23.24 0 0 1 5.508 15.359 29.134 29.134 0 0 1 -.5 5.508c7.052-3 12.327-8.306 12.327-19.38a23.184 23.184 0 0 0 -5.508-15.359 16.225 16.225 0 0 0 -12.182-5.887zm-301.874-122.871a48.631 48.631 0 0 1 21.654 12.619l89.384 88.073c5.917 5.8 9.21 14.018 9.763 22.5a37.517 37.517 0 0 1 -3 17.516 27.512 27.512 0 0 0 5.391-4.255 31.03 31.03 0 0 0 2.594-3.06 36.167 36.167 0 0 0 6.849-24.073c-.554-8.51-3.847-16.7-9.763-22.5l-89.386-88.076a48.765 48.765 0 0 0 -21.654-12.619c-8.014-2.216-16.7-2.507-25.85-1.632l-79.126 7.373v12.768l67.293-6.266c9.152-.874 17.866-.554 25.851 1.632z" fill="#e2aa73"/><path d="m58.2 229.169v226.682h6.354a11.68 11.68 0 0 0 11.628-11.629v-203.422a11.68 11.68 0 0 0 -11.628-11.629z" fill="#877e87"/><path d="m415.3 134.6a24.388 24.388 0 0 1 3.555-.9 14.864 14.864 0 0 1 -4.167-3.264 28 28 0 0 0 -20.868-9.268 27.293 27.293 0 0 0 -7.46.991 27.82 27.82 0 0 1 13.406 8.277 14.554 14.554 0 0 0 15.534 4.164zm0 209.516a14.542 14.542 0 0 0 -15.534 4.138 27.827 27.827 0 0 1 -13.406 8.277 27.3 27.3 0 0 0 7.46 1.02 28.029 28.029 0 0 0 20.868-9.3 15.392 15.392 0 0 1 4.167-3.264 24.31 24.31 0 0 1 -3.555-.874zm22.7-207.129a28.027 28.027 0 0 1 13.435 18.448 14.484 14.484 0 0 0 11.37 11.365 28.143 28.143 0 0 1 20.867 36.139 14.541 14.541 0 0 0 4.139 15.533 28.068 28.068 0 0 1 0 41.734 14.543 14.543 0 0 0 -4.139 15.534 28.118 28.118 0 0 1 -32.146 36.226 28.149 28.149 0 0 1 -20.109 32.5 28.126 28.126 0 0 0 35.031-32.5 28.085 28.085 0 0 0 32.117-36.226 14.5 14.5 0 0 1 4.167-15.534 28.125 28.125 0 0 0 0-41.734 14.5 14.5 0 0 1 -4.167-15.533 28.092 28.092 0 0 0 -20.865-36.139 14.486 14.486 0 0 1 -11.367-11.366 28.12 28.12 0 0 0 -34.914-21.217 28.048 28.048 0 0 1 6.581 2.77z" fill="#4d95cf"/><path d="m398.572 162.983a76.5 76.5 0 0 0 0 152.714c-1.574.088-3.177.146-4.751.146a76.5 76.5 0 0 1 0-153.005c1.574 0 3.177.058 4.751.145z" fill="#d3dde6"/><path d="m401.02 233.074v-26.7a15.389 15.389 0 0 0 -1.749-2.128 14.857 14.857 0 0 0 -2.623-2.069v30.892a28.283 28.283 0 0 1 0 54.7v7.839a7.229 7.229 0 0 1 -5.012 6.849 7.623 7.623 0 0 0 2.185.35 7.214 7.214 0 0 0 7.2-7.2v-7.839a28.283 28.283 0 0 0 0-54.7zm8.423-34.8a28.215 28.215 0 0 1 8.276 19.992 7.191 7.191 0 0 1 -5.012 6.849 6.867 6.867 0 0 0 2.185.35 7.214 7.214 0 0 0 7.2-7.2 28.334 28.334 0 0 0 -21.072-27.365v-7.81a7.2 7.2 0 0 0 -7.2-7.2 7.617 7.617 0 0 0 -2.185.321 7.237 7.237 0 0 1 5.012 6.878v7.81a28.252 28.252 0 0 1 12.795 7.374z" fill="#21b335"/><path d="m282.229 98.255h-7.839v24.626a15.626 15.626 0 0 1 -11.658 15.039 15.847 15.847 0 0 0 3.935.5 15.591 15.591 0 0 0 15.562-15.534zm0-31.126v-24.629a15.59 15.59 0 0 0 -15.562-15.533 15.847 15.847 0 0 0 -3.935.495 15.626 15.626 0 0 1 11.658 15.038v24.629zm40.161 15.563a15.6 15.6 0 0 0 -15.563-15.563h-7.84a15.563 15.563 0 0 1 0 31.126h7.84a15.6 15.6 0 0 0 15.563-15.563z" fill="#21b335"/><path d="m188.182 179.392h-7.84v24.626a15.6 15.6 0 0 1 -11.628 15.038 14.5 14.5 0 0 0 3.905.525 15.616 15.616 0 0 0 15.563-15.563zm0-31.126v-24.6a15.573 15.573 0 0 0 -19.468-15.066 15.607 15.607 0 0 1 11.628 15.067v24.6zm40.19 15.562a15.616 15.616 0 0 0 -15.563-15.562h-7.84a15.563 15.563 0 1 1 0 31.126h7.84a15.6 15.6 0 0 0 15.563-15.564z" fill="#21b335"/><path d="m96.437 87.646h-7.837v24.6a15.606 15.606 0 0 1 -11.628 15.067 15.569 15.569 0 0 0 19.468-15.067zm0-31.125v-24.627a15.616 15.616 0 0 0 -15.563-15.563 14.5 14.5 0 0 0 -3.905.525 15.6 15.6 0 0 1 11.631 15.038v24.627zm40.163 15.563a15.59 15.59 0 0 0 -15.533-15.563h-7.84a15.563 15.563 0 0 1 0 31.125h7.84a15.609 15.609 0 0 0 15.533-15.562z" fill="#21b335"/></g></svg>