<svg id="Capa_1" enable-background="new 0 0 512 512" height="512" viewBox="0 0 512 512" width="512" xmlns="http://www.w3.org/2000/svg"><g><g><path d="m113.886 240.231c4.753 0 8.908-3.188 10.104-7.75 3.132-11.949 7.892-23.428 14.148-34.119 2.387-4.082 1.707-9.279-1.654-12.641l-19.608-19.608-2.185-.771c-15.503 21.475-26.228 46.62-30.625 73.889l1.864 1z" fill="#00f2a6"/><path d="m398.114 294.083c-4.753 0-8.908 3.187-10.104 7.749-3.132 11.949-7.892 23.429-14.148 34.12-2.387 4.082-1.707 9.279 1.654 12.641l19.222 19.222 2.571 1.157c15.504-21.475 26.229-46.62 30.626-73.889l-2.363-1z" fill="#fd6930"/><path d="m229.073 409.272c0-4.754-3.187-8.909-7.749-10.105-11.944-3.129-23.424-7.89-34.12-14.148-1.585-.927-3.394-1.417-5.231-1.417-2.797 0-5.428 1.091-7.409 3.072l-19.23 19.229-1.157 2.571c21.477 15.502 46.626 26.226 73.897 30.621l1-2.363v-27.46z" fill="#00f2a6"/><path d="m116.398 368.68 20.087-20.087c3.361-3.361 4.041-8.559 1.654-12.641-6.257-10.691-11.017-22.171-14.148-34.12-1.196-4.562-5.352-7.749-10.104-7.749h-27.96l-1.864 1c4.395 27.271 15.119 52.42 30.621 73.897z" fill="#00f2a6"/><path d="m120.814 134.231 14.18-14.18c1.601-1.601 3.728-2.481 5.99-2.481s4.389.881 5.988 2.481l27.591 27.59c1.98 1.981 4.612 3.072 7.408 3.072 1.838 0 3.647-.49 5.232-1.418 10.697-6.259 22.177-11.019 34.12-14.147 4.562-1.196 7.749-5.352 7.749-10.104v-28.058l-1-4.006h-161.782v-20.261c0-5.01-5.723-7.868-9.728-4.857l-54.136 40.691c-3.234 2.431-3.234 7.284 0 9.715l54.136 40.692c4.005 3.01 9.728.153 9.728-4.858v-20.261h53.5z" fill="#fd6930"/><path d="m282.926 125.043c0 4.753 3.188 8.908 7.75 10.104 9.155 2.398 18.118 5.794 26.64 10.089l.913.46.439-.922c1.384-2.9 4.346-4.774 7.545-4.774h12.852v-25.392c-16.907-9.251-35.481-15.834-55.138-19.151l-1 1.85v27.736z" fill="#fd6930"/><path d="m509.575 416.045-54.136-40.691c-4.005-3.011-9.728-.153-9.728 4.858v20.261h-53.5l-1.281-.133-13.924 13.924c-1.601 1.6-3.728 2.48-5.99 2.48s-4.389-.881-5.988-2.48l-27.592-27.591c-1.981-1.981-4.612-3.072-7.408-3.072-1.838 0-3.646.49-5.231 1.417-10.696 6.259-22.176 11.02-34.12 14.148-4.562 1.196-7.75 5.352-7.75 10.105v30.057l1 2.005h161.783v20.261c0 5.011 5.723 7.868 9.728 4.858l54.136-40.692c3.235-2.43 3.235-7.284.001-9.715z" fill="#00f2a6"/></g><g><path d="m326.213 257.785c-4.612 0-8.365-3.753-8.365-8.365v-101.055c0-1.274.295-2.478.806-3.56-8.743-4.488-18.019-8.083-27.725-10.626-4.139-1.085-7.003-4.857-7.003-9.137v-38.999c0-5.23-4.24-9.47-9.47-9.47h-36.913c-5.23 0-9.47 4.24-9.47 9.47v38.999c0 4.279-2.864 8.052-7.003 9.137-12.202 3.198-23.741 8.033-34.371 14.252-3.7 2.165-8.398 1.533-11.429-1.498l-27.591-27.59c-3.698-3.698-9.694-3.698-13.393 0l-26.101 26.101c-3.698 3.698-3.698 9.694 0 13.393l27.59 27.591c3.031 3.031 3.663 7.729 1.498 11.429-6.22 10.63-11.055 22.168-14.253 34.371-1.085 4.139-4.858 7.003-9.137 7.003h-38.996c-5.23 0-9.47 4.24-9.47 9.47v36.913c0 5.23 4.24 9.47 9.47 9.47h38.999c4.279 0 8.052 2.864 9.137 7.003 3.198 12.202 8.033 23.741 14.253 34.371 2.165 3.7 1.533 8.397-1.498 11.429l-27.59 27.591c-3.698 3.698-3.698 9.694 0 13.392l26.101 26.101c3.698 3.698 9.694 3.698 13.393 0l27.591-27.591c3.031-3.031 7.729-3.663 11.429-1.498 10.63 6.22 22.169 11.055 34.371 14.253 4.139 1.085 7.003 4.858 7.003 9.137v38.999c0 5.23 4.24 9.47 9.47 9.47h36.913c5.23 0 9.47-4.24 9.47-9.47v-38.999c0-4.279 2.864-8.052 7.003-9.137 12.202-3.198 23.741-8.033 34.371-14.253 3.7-2.165 8.397-1.533 11.429 1.498l27.591 27.591c3.698 3.698 9.694 3.698 13.393 0l26.101-26.101c3.698-3.698 3.698-9.694 0-13.392l-27.59-27.591c-3.031-3.031-3.663-7.729-1.498-11.429 6.22-10.63 11.055-22.169 14.252-34.371 1.085-4.139 4.858-7.003 9.137-7.003h38.999c5.23 0 9.47-4.24 9.47-9.47v-27.828h-120.374z" fill="#cecece"/></g><path d="m208.319 354.691c-30.97-16.906-51.98-49.765-51.98-87.534s21.011-70.629 51.98-87.534c18.205-27.001 44.591-48.03 75.607-59.526v-34.054c0-5.23-4.24-9.47-9.47-9.47h-36.913c-5.23 0-9.47 4.24-9.47 9.47v39c0 4.279-2.864 8.052-7.003 9.137-12.202 3.198-23.741 8.033-34.371 14.252-3.7 2.165-8.398 1.533-11.429-1.498l-27.591-27.59c-3.698-3.698-9.694-3.698-13.393 0l-26.101 26.101c-3.698 3.698-3.698 9.694 0 13.393l27.59 27.591c3.031 3.031 3.663 7.729 1.498 11.428-6.22 10.63-11.055 22.169-14.252 34.371-1.085 4.139-4.858 7.003-9.137 7.003h-38.997c-5.23 0-9.47 4.24-9.47 9.47v36.913c0 5.23 4.24 9.47 9.47 9.47h38.999c4.279 0 8.052 2.864 9.137 7.003 3.198 12.202 8.033 23.741 14.253 34.371 2.165 3.7 1.533 8.398-1.498 11.429l-27.59 27.591c-3.698 3.698-3.698 9.695 0 13.393l26.101 26.101c3.698 3.698 9.694 3.698 13.393 0l27.591-27.591c3.031-3.031 7.729-3.663 11.429-1.498 10.63 6.22 22.168 11.055 34.371 14.253 4.14 1.085 7.003 4.858 7.003 9.137v38.999c0 5.23 4.24 9.47 9.47 9.47h36.913c5.23 0 9.47-4.24 9.47-9.47v-34.053c-31.019-11.498-57.405-32.528-75.61-59.528z" fill="#bfbfbf"/><g><path d="m326.213 257.785c-4.612 0-8.365-3.753-8.365-8.365v-60.412c-16.994-13.467-38.48-21.512-61.848-21.512-55.042 0-99.662 44.62-99.662 99.661 0 55.042 44.62 99.662 99.662 99.662s99.661-44.62 99.661-99.662c0-3.161-.154-6.286-.442-9.371h-29.006z" fill="#ffe177"/><g><path d="m205.787 267.157c0-46.507 31.856-85.571 74.937-96.568-7.906-2.018-16.19-3.093-24.724-3.093-55.042 0-99.662 44.62-99.662 99.661 0 55.042 44.62 99.661 99.662 99.661 8.535 0 16.818-1.075 24.724-3.093-43.081-10.997-74.937-50.062-74.937-96.568z" fill="#ffd15b"/></g><path d="m268.892 259.656h-25.783c-6.204 0-11.252-5.047-11.252-11.251v-5.47c0-6.204 5.048-11.251 11.252-11.251h25.783c6.204 0 11.252 5.047 11.252 11.251 0 4.143 3.357 7.5 7.5 7.5s7.5-3.357 7.5-7.5c0-14.475-11.776-26.251-26.252-26.251h-5.392v-9.689c0-4.143-3.357-7.5-7.5-7.5s-7.5 3.357-7.5 7.5v9.689h-5.392c-14.476 0-26.252 11.776-26.252 26.251v5.47c0 14.475 11.776 26.251 26.252 26.251h25.783c6.204 0 11.252 5.048 11.252 11.252v5.47c0 6.204-5.048 11.251-11.252 11.251h-25.783c-6.204 0-11.252-5.047-11.252-11.251 0-4.143-3.357-7.5-7.5-7.5s-7.5 3.357-7.5 7.5c0 14.475 11.776 26.251 26.252 26.251h5.392v9.689c0 4.143 3.357 7.5 7.5 7.5s7.5-3.357 7.5-7.5v-9.689h5.392c14.476 0 26.252-11.776 26.252-26.251v-5.47c0-14.475-11.777-26.252-26.252-26.252z" fill="#fe860a"/></g><g><g><g><path d="m370.656 140v-34.519c0-15.755 12.818-28.572 28.573-28.572s28.573 12.818 28.573 28.572v34.519h32.591v-34.519c0-33.726-27.438-61.164-61.165-61.164s-61.165 27.438-61.165 61.164v34.519z" fill="#838383"/><g><g><path d="m407.471 44.889c-2.698-.365-5.445-.571-8.241-.571-33.727 0-61.165 27.438-61.165 61.164v33.518h16.483v-33.519c-.001-30.929 23.082-56.553 52.923-60.592z" fill="#5a5a5a"/></g><g><path d="m415.712 76.909c-2.865 0-5.631.429-8.241 1.217 11.749 3.546 20.332 14.466 20.332 27.356v33.518h16.483v-33.519c-.001-15.754-12.818-28.572-28.574-28.572z" fill="#5a5a5a"/></g></g><g><path d="m472.244 258.785h-146.03c-5.172 0-9.365-4.193-9.365-9.365v-101.055c0-5.172 4.193-9.365 9.365-9.365h146.031c5.172 0 9.365 4.193 9.365 9.365v101.055c0 5.172-4.193 9.365-9.366 9.365z" fill="#26a6fe"/></g><g><path d="m358.055 249.419v-101.054c0-5.172 4.193-9.365 9.365-9.365h-41.207c-5.172 0-9.365 4.193-9.365 9.365v101.054c0 5.172 4.193 9.365 9.365 9.365h41.207c-5.171.001-9.365-4.192-9.365-9.365z" fill="#0593fc"/></g></g><g><g><circle cx="399.229" cy="188.443" fill="#fff" r="17.771"/></g><g><path d="m397.941 188.443c0-6.838 3.868-12.765 9.53-15.737-2.465-1.294-5.265-2.034-8.241-2.034-9.815 0-17.771 7.956-17.771 17.771s7.957 17.771 17.771 17.771c2.977 0 5.777-.741 8.241-2.034-5.663-2.972-9.53-8.899-9.53-15.737z" fill="#ebebeb"/></g><path d="m424.5 188.443c0-13.935-11.337-25.271-25.271-25.271s-25.271 11.337-25.271 25.271c0 11.324 7.487 20.932 17.771 24.134v16.634c0 4.143 3.357 7.5 7.5 7.5s7.5-3.357 7.5-7.5v-16.634c10.284-3.201 17.771-12.809 17.771-24.134zm-25.271 10.271c-5.663 0-10.271-4.607-10.271-10.271s4.607-10.271 10.271-10.271 10.271 4.607 10.271 10.271-4.607 10.271-10.271 10.271z" fill="#0182fc"/></g></g></g></g></svg>