<svg id="Layer_1" enable-background="new 0 0 512 512" height="512" viewBox="0 0 512 512" width="512" xmlns="http://www.w3.org/2000/svg"><g clip-rule="evenodd" fill-rule="evenodd"><path d="m248.096 322.536 109.979-63.496 101.635 176.04c2.009 3.477-.832 7.73-4.813 7.211l-69.598-9.105-26.914 64.826c-1.54 3.708-6.644 4.041-8.652.563z" fill="#e03"/><path d="m153.925 259.041 109.979 63.496-101.637 176.04c-2.009 3.478-7.112 3.144-8.652-.563l-26.914-64.826-69.598 9.104c-3.981.521-6.822-3.733-4.814-7.211z" fill="#e03"/><path d="m222.92 11h66.16v33.196c21.904 4.367 42.274 12.985 60.216 24.958l23.485-23.484 46.782 46.783-23.485 23.484c11.975 17.94 20.587 38.312 24.957 60.215h33.197v66.16h-33.196c-4.367 21.905-12.986 42.274-24.958 60.217l23.485 23.484-46.784 46.781-23.482-23.482c-17.941 11.976-38.313 20.59-60.217 24.958v33.194h-66.16v-33.193c-21.906-4.367-42.275-12.984-60.219-24.958l-23.482 23.483-46.781-46.783 23.481-23.482c-11.976-17.941-20.589-38.313-24.958-60.219h-33.193v-66.16h33.194c4.367-21.905 12.985-42.274 24.959-60.217l-23.485-23.484 46.783-46.781 23.483 23.483c17.94-11.975 38.313-20.589 60.218-24.957z" fill="#fad808"/><circle cx="255.998" cy="209.234" fill="#eff4f7" r="103.081"/><path d="m295.321 164.684c5.53-5.53 14.496-5.53 20.025 0 5.529 5.529 5.529 14.496 0 20.025l-69.072 69.073c-6.264 6.263-16.61 5.278-21.636-1.92l-29.062-36.571c-4.857-6.11-3.842-15.002 2.269-19.859 6.11-4.857 15.002-3.843 19.86 2.269l19.748 24.851z" fill="#1980f2"/></g></svg>